<svg xmlns="http://www.w3.org/2000/svg" xmlns:xlink="http://www.w3.org/1999/xlink" viewBox="0 0 299.25 232.87"><defs><linearGradient id="linear-gradient" x1="1903.1" y1="1203.84" x2="1903.1" y2="1204.37" gradientTransform="matrix(48.32, 0, 0, -92.06, -91798.24, 110955.97)" gradientUnits="userSpaceOnUse"><stop offset="0" stop-color="#ebebeb"/><stop offset="1" stop-color="#fffeff"/></linearGradient><linearGradient id="linear-gradient-2" x1="1904.52" y1="1213.43" x2="1905.59" y2="1211.82" gradientTransform="matrix(50.67, 0, 0, -28.81, -96365.7, 35000.47)" gradientUnits="userSpaceOnUse"><stop offset="0" stop-color="#ffac06"/><stop offset="1" stop-color="#ff460e"/></linearGradient><linearGradient id="linear-gradient-3" x1="1116.46" y1="1205.79" x2="1117.46" y2="1205.79" gradientTransform="matrix(2.35, 0, 0, -65.45, -2448.72, 79027.98)" gradientUnits="userSpaceOnUse"><stop offset="0" stop-color="#afaeae"/><stop offset="1" stop-color="#adadad"/></linearGradient><linearGradient id="linear-gradient-4" x1="1861.86" y1="1225.45" x2="1861.86" y2="1225.61" gradientTransform="matrix(23.85, 0, 0, -15.14, -44266.1, 18614.64)" gradientUnits="userSpaceOnUse"><stop offset="0" stop-color="#b8b8b8"/><stop offset="1" stop-color="#fffeff"/></linearGradient><linearGradient id="linear-gradient-5" x1="1890.52" y1="1217.42" x2="1890.52" y2="1217.53" gradientTransform="matrix(36.8, 0, 0, -22.45, -69419.71, 27400.14)" xlink:href="#linear-gradient-4"/><linearGradient id="linear-gradient-6" x1="1890.52" y1="1217.42" x2="1890.52" y2="1217.53" gradientTransform="matrix(36.8, 0, 0, -22.45, -69419.71, 27406.67)" xlink:href="#linear-gradient-4"/><linearGradient id="linear-gradient-7" x1="1890.52" y1="1217.42" x2="1890.52" y2="1217.53" gradientTransform="matrix(36.8, 0, 0, -22.45, -69419.71, 27412.46)" xlink:href="#linear-gradient-4"/><linearGradient id="linear-gradient-8" x1="1883.05" y1="1219.58" x2="1883.05" y2="1219.7" gradientTransform="matrix(32.24, 0, 0, -19.88, -60554.69, 24323.61)" xlink:href="#linear-gradient-4"/><linearGradient id="linear-gradient-9" x1="1903.1" y1="1210.31" x2="1903.1" y2="1211.2" gradientTransform="matrix(48.32, 0, 0, -34.43, -91798.24, 41746.56)" gradientUnits="userSpaceOnUse"><stop offset="0" stop-color="#ffac06"/><stop offset="0.57" stop-color="#ff720b"/></linearGradient><linearGradient id="linear-gradient-10" x1="1118.99" y1="1245.77" x2="1114.61" y2="1246.74" gradientTransform="matrix(2.35, 0, 0, -7.82, -2448.72, 9822.15)" xlink:href="#linear-gradient-2"/><linearGradient id="linear-gradient-11" x1="1903.1" y1="1203.84" x2="1903.1" y2="1204.37" gradientTransform="matrix(48.32, 0, 0, -92.06, -91814.7, 110963.3)" xlink:href="#linear-gradient"/><linearGradient id="linear-gradient-12" x1="1904.52" y1="1213.43" x2="1905.59" y2="1211.82" gradientTransform="matrix(50.66, 0, 0, -28.81, -96376.46, 35011.31)" xlink:href="#linear-gradient-2"/><linearGradient id="linear-gradient-13" x1="1116.42" y1="1205.79" x2="1117.42" y2="1205.79" gradientTransform="matrix(2.35, 0, 0, -65.45, -2464.94, 79038.97)" xlink:href="#linear-gradient-3"/><linearGradient id="linear-gradient-14" x1="1861.86" y1="1224.83" x2="1861.86" y2="1225" gradientTransform="matrix(23.85, 0, 0, -15.14, -44282.57, 18621.23)" xlink:href="#linear-gradient-4"/><linearGradient id="linear-gradient-15" x1="1890.52" y1="1217.01" x2="1890.52" y2="1217.12" gradientTransform="matrix(36.8, 0, 0, -22.45, -69436.18, 27407.9)" xlink:href="#linear-gradient-4"/><linearGradient id="linear-gradient-16" x1="1890.52" y1="1217.01" x2="1890.52" y2="1217.12" gradientTransform="matrix(36.8, 0, 0, -22.45, -69436.18, 27411.65)" xlink:href="#linear-gradient-4"/><linearGradient id="linear-gradient-17" x1="1890.52" y1="1217.01" x2="1890.52" y2="1217.12" gradientTransform="matrix(36.8, 0, 0, -22.46, -69436.18, 27420.96)" xlink:href="#linear-gradient-4"/><linearGradient id="linear-gradient-18" x1="1883.05" y1="1219.11" x2="1883.05" y2="1219.24" gradientTransform="matrix(32.24, 0, 0, -19.88, -60571.16, 24331.67)" xlink:href="#linear-gradient-4"/><linearGradient id="linear-gradient-19" x1="1903.1" y1="1210.31" x2="1903.1" y2="1211.2" gradientTransform="matrix(48.32, 0, 0, -34.43, -91814.7, 41753.88)" xlink:href="#linear-gradient-9"/><linearGradient id="linear-gradient-20" x1="1118.95" y1="1245.77" x2="1114.57" y2="1246.74" gradientTransform="matrix(2.35, 0, 0, -7.82, -2464.94, 9829.48)" xlink:href="#linear-gradient-2"/><linearGradient id="linear-gradient-21" x1="1903.14" y1="1204.72" x2="1903.09" y2="1204.31" gradientTransform="matrix(48.3, 0, 0, -87.24, -91799.66, 105191.91)" gradientUnits="userSpaceOnUse"><stop offset="0" stop-color="#ffc28f"/><stop offset="0.99" stop-color="#d68b58"/></linearGradient><linearGradient id="linear-gradient-22" x1="1894.63" y1="1204.66" x2="1894.63" y2="1205.19" gradientTransform="matrix(39.91, 0, 0, -76.05, -75501.8, 91747.66)" xlink:href="#linear-gradient"/><linearGradient id="linear-gradient-23" x1="1897.42" y1="1214.62" x2="1896.11" y2="1216.53" gradientTransform="matrix(41.85, 0, 0, -23.8, -79274.77, 28999.94)" xlink:href="#linear-gradient"/><linearGradient id="linear-gradient-24" x1="942.4" y1="1206.94" x2="943.4" y2="1206.94" gradientTransform="matrix(1.94, 0, 0, -54.07, -1693.44, 65372.35)" xlink:href="#linear-gradient-3"/><linearGradient id="linear-gradient-25" x1="1590.67" y1="1209.35" x2="1590.75" y2="1208.3" gradientTransform="matrix(5.51, 0, 0, -42.24, -8623.94, 51199.29)" gradientUnits="userSpaceOnUse"><stop offset="0" stop-color="#ffc28f"/><stop offset="0.99" stop-color="#e09966"/></linearGradient><linearGradient id="linear-gradient-26" x1="1844.71" y1="1229.21" x2="1844.71" y2="1229.37" gradientTransform="matrix(19.7, 0, 0, -12.51, -36235.86, 15467.48)" xlink:href="#linear-gradient-4"/><linearGradient id="linear-gradient-27" x1="1879.4" y1="1219.96" x2="1879.4" y2="1220.07" gradientTransform="matrix(30.4, 0, 0, -18.55, -57014.11, 22725.14)" xlink:href="#linear-gradient-4"/><linearGradient id="linear-gradient-28" x1="1879.4" y1="1219.96" x2="1879.4" y2="1220.07" gradientTransform="matrix(30.4, 0, 0, -18.55, -57014.11, 22729.32)" xlink:href="#linear-gradient-4"/><linearGradient id="linear-gradient-29" x1="1879.4" y1="1219.96" x2="1879.4" y2="1220.07" gradientTransform="matrix(30.4, 0, 0, -18.55, -57014.11, 22733.35)" xlink:href="#linear-gradient-4"/><linearGradient id="linear-gradient-30" x1="1870.35" y1="1222.45" x2="1870.35" y2="1222.57" gradientTransform="matrix(26.63, 0, 0, -16.42, -49691.57, 20179.96)" xlink:href="#linear-gradient-4"/><linearGradient id="linear-gradient-31" x1="1902.83" y1="1206.03" x2="1903.21" y2="1205.51" gradientTransform="matrix(48.3, 0, 0, -66.74, -91806.03, 80596.15)" xlink:href="#linear-gradient-21"/><linearGradient id="linear-gradient-32" x1="1451.09" y1="1268.62" x2="1452.09" y2="1268.62" gradientTransform="matrix(3.95, 0, 0, -5.25, -5577.7, 6708.62)" gradientUnits="userSpaceOnUse"><stop offset="0" stop-color="#4c6fbf"/><stop offset="1" stop-color="#8ca3d8"/></linearGradient><linearGradient id="linear-gradient-33" x1="1430.08" y1="1357.32" x2="1431.08" y2="1357.32" gradientTransform="matrix(3.95, 0, 0, -2.29, -5570.12, 3143.18)" gradientUnits="userSpaceOnUse"><stop offset="0" stop-color="#47c3b9"/><stop offset="0.99" stop-color="#b8edff"/></linearGradient><linearGradient id="linear-gradient-34" x1="1450.89" y1="1268.63" x2="1451.89" y2="1268.63" gradientTransform="matrix(3.95, 0, 0, -5.25, -5564.11, 6713.6)" xlink:href="#linear-gradient-32"/><linearGradient id="linear-gradient-35" x1="1424.87" y1="1357.29" x2="1425.87" y2="1357.29" gradientTransform="matrix(3.95, 0, 0, -2.29, -5561.26, 3150.07)" xlink:href="#linear-gradient-33"/><linearGradient id="linear-gradient-36" x1="1451.17" y1="1268.64" x2="1452.17" y2="1268.64" gradientTransform="matrix(3.95, 0, 0, -5.25, -5587.22, 6701.43)" xlink:href="#linear-gradient-32"/><linearGradient id="linear-gradient-37" x1="1434.31" y1="1357.33" x2="1435.31" y2="1357.33" gradientTransform="matrix(3.95, 0, 0, -2.29, -5578.45, 3138.27)" xlink:href="#linear-gradient-33"/><linearGradient id="linear-gradient-38" x1="1823.55" y1="1250.14" x2="1824.55" y2="1250.14" gradientTransform="matrix(16.73, 0, 0, -7.2, -30425.64, 9011.41)" gradientUnits="userSpaceOnUse"><stop offset="0" stop-color="#fff"/><stop offset="1" stop-color="#d1d0cf"/></linearGradient><linearGradient id="linear-gradient-39" x1="1857.81" y1="1229.86" x2="1858.81" y2="1229.86" gradientTransform="matrix(23.75, 0, 0, -12.14, -44047.85, 14940.35)" xlink:href="#linear-gradient-38"/><linearGradient id="linear-gradient-40" x1="1826.51" y1="1214.13" x2="1827.51" y2="1214.13" gradientTransform="matrix(17.88, 0, 0, -25.96, -32623.02, 31554.6)" xlink:href="#linear-gradient-38"/><linearGradient id="linear-gradient-41" x1="1877.19" y1="1212.63" x2="1878.19" y2="1212.63" gradientTransform="matrix(31.29, 0, 0, -29.11, -58700.5, 35321.91)" xlink:href="#linear-gradient-38"/><linearGradient id="linear-gradient-42" x1="1903.76" y1="1208.06" x2="1904.76" y2="1208.06" gradientTransform="matrix(50.8, 0, 0, -46.28, -96617.8, 55935.7)" xlink:href="#linear-gradient-38"/><linearGradient id="linear-gradient-43" x1="1900.52" y1="1209.37" x2="1900.52" y2="1208.37" gradientTransform="matrix(45.41, 0, 0, -41.89, -86137.67, 50669.24)" gradientUnits="userSpaceOnUse"><stop offset="0" stop-color="#a760ff"/><stop offset="1" stop-color="#300c5c"/></linearGradient></defs><g id="Layer_2" data-name="Layer 2"><g id="Layer_1-2" data-name="Layer 1"><g id="Group_67" data-name="Group 67"><path id="Path_106" data-name="Path 106" d="M263.25,71.64C258.5,42.85,226.52,24,192.8,30.11a70.8,70.8,0,0,0-23.4,8.63c-13.33,7.88-14.68,20.71-25.66,31-21,19.65-30.43,7.66-49.8,1.29-28.6-9.43-79.62-20.56-88.2,24.13-8.64,45,57,44.77,74.75,51.81,13.84,5.48,23.51,16.29,26.66,29.24,0,.2.09.39.14.59,6.69,26,22.86,59.88,54.11,55.76,50.35-6.63,52.38-39.42,47.17-68.68L205.31,144c-2-11.09,25.51-15.28,35.74-22.9C257.27,109,266.36,90.5,263.25,71.64Z" fill="#ffcc8f" opacity="0.5" style="isolation:isolate"/><path id="Path_107" data-name="Path 107" d="M188.38,6.82C152,11.34,27.11,22.25,161.31,123.48c17.53,13.23,32.61,51.42,64.53,43.44s72.79-45.63,46.88-58.15C216.12,81.41,343.13-12.41,188.38,6.82Z" fill="#ffcc8f" opacity="0.3" style="isolation:isolate"/><path id="Path_108" data-name="Path 108" d="M216.68,80.37q-2.22-1.44-4.3-3.06c-11.26-8.77-17-22.56-26.7-32.85-9.47-10.06-20.35-19.83-32-27.31-24.38-15.68-53-21.33-79.46-13.93C46,11.13,21.72,32.21,9.43,58.88a106.12,106.12,0,0,0-1,85.16c10.52,24.5,31.73,47.7,57.33,56.34,19.48,6.58,40.08,4.36,59.42.53,26.77-5.3,52.08-10.82,80.25-7.59,17.38,2,33.43,5.71,50.1.92,15.5-4.45,28.53-17.1,36.07-31.05a64,64,0,0,0,5.75-45.88c-3.06-11.92-11-24.15-22.92-27.47-7.85-2.2-15.83-.13-23.78.21A58.61,58.61,0,0,1,216.68,80.37Z" fill="#ffcc8f"/><g id="Group_313" data-name="Group 313"><g id="Group_312" data-name="Group 312"><g id="Group_291" data-name="Group 291" opacity="0.17"><ellipse id="Ellipse_82" data-name="Ellipse 82" cx="143.67" cy="160.7" rx="50.59" ry="28.34" fill="#190c00" fill-opacity="0"/><ellipse id="Ellipse_83" data-name="Ellipse 83" cx="143.67" cy="160.7" rx="49.62" ry="27.8" fill="#190c00" opacity="0.04" style="isolation:isolate"/><ellipse id="Ellipse_84" data-name="Ellipse 84" cx="143.67" cy="160.7" rx="48.64" ry="27.25" fill="#190c00" opacity="0.08" style="isolation:isolate"/><ellipse id="Ellipse_85" data-name="Ellipse 85" cx="143.67" cy="160.7" rx="47.67" ry="26.71" fill="#190c00" opacity="0.13" style="isolation:isolate"/><ellipse id="Ellipse_86" data-name="Ellipse 86" cx="143.67" cy="160.7" rx="46.7" ry="26.16" fill="#190c00" opacity="0.17" style="isolation:isolate"/><ellipse id="Ellipse_87" data-name="Ellipse 87" cx="143.67" cy="160.7" rx="45.72" ry="25.62" fill="#190c00" opacity="0.21" style="isolation:isolate"/><ellipse id="Ellipse_88" data-name="Ellipse 88" cx="143.67" cy="160.7" rx="44.75" ry="25.07" fill="#190c00" opacity="0.25" style="isolation:isolate"/><ellipse id="Ellipse_89" data-name="Ellipse 89" cx="143.67" cy="160.7" rx="43.78" ry="24.53" fill="#190c00" opacity="0.29" style="isolation:isolate"/><ellipse id="Ellipse_90" data-name="Ellipse 90" cx="143.67" cy="160.7" rx="42.81" ry="23.98" fill="#190c00" opacity="0.33" style="isolation:isolate"/><ellipse id="Ellipse_91" data-name="Ellipse 91" cx="143.67" cy="160.7" rx="41.83" ry="23.44" fill="#190c00" opacity="0.38" style="isolation:isolate"/><ellipse id="Ellipse_92" data-name="Ellipse 92" cx="143.67" cy="160.7" rx="40.86" ry="22.89" fill="#190c00" opacity="0.42" style="isolation:isolate"/><ellipse id="Ellipse_93" data-name="Ellipse 93" cx="143.67" cy="160.7" rx="39.89" ry="22.35" fill="#190c00" opacity="0.46" style="isolation:isolate"/><ellipse id="Ellipse_94" data-name="Ellipse 94" cx="143.67" cy="160.7" rx="38.91" ry="21.8" fill="#190c00" opacity="0.5" style="isolation:isolate"/><ellipse id="Ellipse_95" data-name="Ellipse 95" cx="143.67" cy="160.7" rx="37.94" ry="21.25" fill="#190c00" opacity="0.54" style="isolation:isolate"/><ellipse id="Ellipse_96" data-name="Ellipse 96" cx="143.67" cy="160.7" rx="36.97" ry="20.71" fill="#190c00" opacity="0.58" style="isolation:isolate"/><ellipse id="Ellipse_97" data-name="Ellipse 97" cx="143.67" cy="160.7" rx="35.99" ry="20.17" fill="#190c00" opacity="0.63" style="isolation:isolate"/><ellipse id="Ellipse_98" data-name="Ellipse 98" cx="143.67" cy="160.7" rx="35.02" ry="19.62" fill="#190c00" opacity="0.67" style="isolation:isolate"/><ellipse id="Ellipse_99" data-name="Ellipse 99" cx="143.67" cy="160.7" rx="34.05" ry="19.08" fill="#190c00" opacity="0.71" style="isolation:isolate"/><ellipse id="Ellipse_100" data-name="Ellipse 100" cx="143.67" cy="160.7" rx="33.08" ry="18.53" fill="#190c00" opacity="0.75" style="isolation:isolate"/><ellipse id="Ellipse_101" data-name="Ellipse 101" cx="143.67" cy="160.7" rx="32.1" ry="17.98" fill="#190c00" opacity="0.79" style="isolation:isolate"/><ellipse id="Ellipse_102" data-name="Ellipse 102" cx="143.67" cy="160.7" rx="31.13" ry="17.44" fill="#190c00" opacity="0.83" style="isolation:isolate"/><ellipse id="Ellipse_103" data-name="Ellipse 103" cx="143.67" cy="160.7" rx="30.16" ry="16.89" fill="#190c00" opacity="0.88" style="isolation:isolate"/><ellipse id="Ellipse_104" data-name="Ellipse 104" cx="143.67" cy="160.7" rx="29.18" ry="16.35" fill="#190c00" opacity="0.92" style="isolation:isolate"/><ellipse id="Ellipse_105" data-name="Ellipse 105" cx="143.67" cy="160.7" rx="28.21" ry="15.8" fill="#190c00" opacity="0.96" style="isolation:isolate"/><ellipse id="Ellipse_106" data-name="Ellipse 106" cx="143.67" cy="160.7" rx="27.24" ry="15.26" fill="#190c00"/></g><g id="Group_294" data-name="Group 294"><g id="Group_293" data-name="Group 293"><path id="Path_281" data-name="Path 281" d="M176.17,77.64,127.85,49.93v64.35L176.17,142Z" fill="url(#linear-gradient)"/><path id="Path_282" data-name="Path 282" d="M178.52,76.54l-2.35,1.1L127.85,49.93l2.35-1.1Z" fill="url(#linear-gradient-2)"/><path id="Path_283" data-name="Path 283" d="M176.17,142l2.35-1.1V76.54l-2.35,1.1Z" fill="url(#linear-gradient-3)"/><g id="Group_292" data-name="Group 292"><path id="Path_284" data-name="Path 284" d="M157.08,87.4l-21-11.86a2.92,2.92,0,0,1-1.43-2.24h0c0-.79.64-1.07,1.43-.62l21,11.85a2.92,2.92,0,0,1,1.43,2.24h0C158.51,87.56,157.86,87.84,157.08,87.4Z" fill="url(#linear-gradient-4)"/><path id="Path_285" data-name="Path 285" d="M170,100.65,136.09,81.49a2.93,2.93,0,0,1-1.43-2.25h0c0-.78.64-1.06,1.43-.62L170,97.78a3,3,0,0,1,1.44,2.25h0C171.46,100.82,170.81,101.1,170,100.65Z" fill="url(#linear-gradient-5)"/><path id="Path_286" data-name="Path 286" d="M170,106.6,136.09,87.43a2.92,2.92,0,0,1-1.43-2.24h0c0-.79.64-1.07,1.43-.63L170,103.73a3,3,0,0,1,1.44,2.24h0C171.46,106.76,170.81,107,170,106.6Z" fill="url(#linear-gradient-6)"/><path id="Path_287" data-name="Path 287" d="M170,112.54,136.09,93.38a2.93,2.93,0,0,1-1.43-2.25h0c0-.79.64-1.07,1.43-.62L170,109.67a3,3,0,0,1,1.44,2.25h0C171.46,112.7,170.81,113,170,112.54Z" fill="url(#linear-gradient-7)"/><path id="Path_288" data-name="Path 288" d="M165.46,115.91,136.09,99.32a2.93,2.93,0,0,1-1.43-2.24h0c0-.79.64-1.07,1.43-.63L165.46,113a2.92,2.92,0,0,1,1.43,2.24h0C166.89,116.07,166.25,116.35,165.46,115.91Z" fill="url(#linear-gradient-8)"/></g></g><path id="Path_289" data-name="Path 289" d="M127.85,56.65l48.32,27.7V77.64L127.85,49.93Z" fill="url(#linear-gradient-9)"/><path id="Path_290" data-name="Path 290" d="M176.17,77.64l2.35-1.1v6.71l-2.35,1.1Z" fill="url(#linear-gradient-10)"/></g><g id="Group_297" data-name="Group 297"><g id="Group_296" data-name="Group 296"><path id="Path_291" data-name="Path 291" d="M159.71,85,111.39,57.26v64.35l48.32,27.71Z" fill="url(#linear-gradient-11)"/><path id="Path_292" data-name="Path 292" d="M162.06,83.87,159.71,85,111.39,57.26l2.35-1.1Z" fill="url(#linear-gradient-12)"/><path id="Path_293" data-name="Path 293" d="M159.71,149.32l2.35-1.1V83.87L159.71,85Z" fill="url(#linear-gradient-13)"/><g id="Group_295" data-name="Group 295"><path id="Path_294" data-name="Path 294" d="M140.61,94.72l-21-11.85a2.93,2.93,0,0,1-1.44-2.24h0c0-.79.65-1.07,1.44-.63l21,11.86a3,3,0,0,1,1.44,2.24h0C142.05,94.89,141.4,95.17,140.61,94.72Z" fill="url(#linear-gradient-14)"/><path id="Path_295" data-name="Path 295" d="M153.56,108,119.63,88.82a2.94,2.94,0,0,1-1.44-2.25h0c0-.79.65-1.07,1.44-.62l33.93,19.16a2.93,2.93,0,0,1,1.43,2.25h0C155,108.14,154.35,108.42,153.56,108Z" fill="url(#linear-gradient-15)"/><path id="Path_296" data-name="Path 296" d="M153.56,113.92,119.63,94.76a2.94,2.94,0,0,1-1.44-2.24h0c0-.79.65-1.07,1.44-.63l33.93,19.17A2.92,2.92,0,0,1,155,113.3h0C155,114.09,154.35,114.37,153.56,113.92Z" fill="url(#linear-gradient-16)"/><path id="Path_297" data-name="Path 297" d="M153.56,119.87,119.63,100.7a2.93,2.93,0,0,1-1.44-2.24h0c0-.79.65-1.07,1.44-.62L153.56,117a2.92,2.92,0,0,1,1.43,2.24h0C155,120,154.35,120.31,153.56,119.87Z" fill="url(#linear-gradient-17)"/><path id="Path_298" data-name="Path 298" d="M149,123.23l-29.37-16.58a2.94,2.94,0,0,1-1.44-2.25h0c0-.79.65-1.07,1.44-.62L149,120.37a2.92,2.92,0,0,1,1.43,2.24h0C150.43,123.4,149.78,123.68,149,123.23Z" fill="url(#linear-gradient-18)"/></g></g><path id="Path_299" data-name="Path 299" d="M111.39,64l48.32,27.71V85L111.39,57.26Z" fill="url(#linear-gradient-19)"/><path id="Path_300" data-name="Path 300" d="M159.71,85l2.35-1.1v6.72l-2.35,1.1Z" fill="url(#linear-gradient-20)"/></g><g id="Group_299" data-name="Group 299"><path id="Path_301" data-name="Path 301" d="M143.67,118.46,122.07,73a4.27,4.27,0,0,0-6.82-1.23L95.37,91h0v39.31l48.3,27.43V118.46l-18.81-10.68Z" fill="url(#linear-gradient-21)"/><path id="Path_302" data-name="Path 302" d="M95.37,91,89.86,94l5.51,8.78Z" fill="#cc8a5e"/><path id="Path_303" data-name="Path 303" d="M136.72,91.65,96.81,68.77v53.16l39.91,22.88Z" fill="url(#linear-gradient-22)"/><path id="Path_304" data-name="Path 304" d="M138.66,90.75l-1.94.9L96.81,68.77l1.94-.91Z" fill="url(#linear-gradient-23)"/><path id="Path_305" data-name="Path 305" d="M136.72,144.81l1.94-.9V90.75l-1.94.9Z" fill="url(#linear-gradient-24)"/><path id="Path_306" data-name="Path 306" d="M143.67,118.46l-5.51,2.93V160.7l5.51-2.93Z" fill="url(#linear-gradient-25)"/><g id="Group_298" data-name="Group 298"><path id="Path_307" data-name="Path 307" d="M121,99.72l-17.34-9.79a2.48,2.48,0,0,1-1.18-1.86h0c0-.65.53-.88,1.18-.51L121,97.35a2.39,2.39,0,0,1,1.18,1.85h0C122.14,99.85,121.6,100.08,121,99.72Z" fill="url(#linear-gradient-26)"/><path id="Path_308" data-name="Path 308" d="M131.65,110.67l-28-15.84A2.44,2.44,0,0,1,102.43,93h0c0-.65.53-.88,1.18-.51l28,15.83a2.44,2.44,0,0,1,1.18,1.85h0C132.83,110.8,132.3,111,131.65,110.67Z" fill="url(#linear-gradient-27)"/><path id="Path_309" data-name="Path 309" d="M131.65,115.58l-28-15.83a2.48,2.48,0,0,1-1.18-1.86h0c0-.65.53-.88,1.18-.51l28,15.83a2.44,2.44,0,0,1,1.18,1.85h0C132.83,115.71,132.3,115.94,131.65,115.58Z" fill="url(#linear-gradient-28)"/><path id="Path_310" data-name="Path 310" d="M131.65,120.49l-28-15.83a2.46,2.46,0,0,1-1.18-1.86h0c0-.65.53-.88,1.18-.51l28,15.83a2.44,2.44,0,0,1,1.18,1.85h0C132.83,120.62,132.3,120.86,131.65,120.49Z" fill="url(#linear-gradient-29)"/><path id="Path_311" data-name="Path 311" d="M127.88,123.27l-24.27-13.7a2.44,2.44,0,0,1-1.18-1.85h0c0-.65.53-.89,1.18-.52l24.27,13.7a2.44,2.44,0,0,1,1.18,1.85h0C129.06,123.4,128.53,123.64,127.88,123.27Z" fill="url(#linear-gradient-30)"/></g><path id="Path_312" data-name="Path 312" d="M89.86,133.27l47.43,27.93.87-.5V121.39L117,126a8.94,8.94,0,0,1-9.47-4L89.87,94l-.87.5Z" fill="#fbbd8a"/><path id="Path_313" data-name="Path 313" d="M89,133.77l48.3,27.43V121.89l-21.12,4.6a9,9,0,0,1-9.48-4L89,94.46Z" fill="url(#linear-gradient-31)"/></g><g id="Group_311" data-name="Group 311"><g id="Group_302" data-name="Group 302"><g id="Group_301" data-name="Group 301"><path id="Path_314" data-name="Path 314" d="M155.64,40.72a133310987661.36,133310987661.36,0,0,1,0,.12l0,0a.08.08,0,0,0,0,0,.14.14,0,0,0,0,.06.41.41,0,0,1,.05.09h0l.07.08v0l.09.08.06,0,.05,0,.07.05.08,0,.18.09.06,0,.15,0,.06,0,.1,0,.08,0,.11,0H157l.23,0h.86l.1,0h.08l.13,0,.06,0,.22-.07.1,0,0,0,.14-.07a1,1,0,0,0,.59-.82v4.12a1,1,0,0,1-.59.81l-.14.08-.05,0-.09,0h0l-.21.07h-.07l-.12,0h-1.05l-.23,0h0l-.06,0-.11,0-.08,0-.1,0h0l-.16-.06-.05,0-.19-.1h0l-.06,0-.07,0,0,0L156,45.4h0l-.08-.08h0l0,0,0,0v0l0-.06v0l0-.06,0,0h0s0,0,0-.06,0,0,0,0h0v-.06s0,0,0,0v0l0-4.11S155.64,40.7,155.64,40.72Z" fill="url(#linear-gradient-32)"/><g id="Group_300" data-name="Group 300"><path id="Path_315" data-name="Path 315" d="M156.21,39.85a.85.85,0,0,0-.54,1.08.89.89,0,0,0,.53.54,3.11,3.11,0,0,0,2.79,0,.85.85,0,0,0,.54-1.08.84.84,0,0,0-.53-.54A3.05,3.05,0,0,0,156.21,39.85Z" fill="url(#linear-gradient-33)"/></g></g></g><g id="Group_305" data-name="Group 305"><g id="Group_304" data-name="Group 304"><path id="Path_316" data-name="Path 316" d="M166.15,47V47l0,.05s0,0,0,.06,0,0,0,.05a.33.33,0,0,1,0,.06.56.56,0,0,0,.05.08v0l.07.08h0a.6.6,0,0,0,.08.08l.06,0,.06.05.07,0,.07,0,.19.1.06,0,.15.06.06,0,.1,0,.08,0,.11,0,.07,0,.22,0h.78l.09,0h.1l.08,0,.12,0,.07,0,.21-.07.1,0,0,0,.15-.08a1,1,0,0,0,.58-.81V51a1,1,0,0,1-.58.82l-.15.07-.05,0-.09,0h0L169,52h-.07l-.12,0h-.08l-.1,0h-.87l-.22,0h-.07l-.11,0-.08,0-.1,0h-.06l-.15-.06-.06,0-.18-.09h0l0,0-.07,0-.06,0-.06-.05h0l-.07-.07v0s0,0,0,0l0,0h0l0-.07h0l0-.07v-.05s0,0,0,0a.08.08,0,0,1,0,0v0s0,0,0-.06V46.89A.06.06,0,0,0,166.15,47Z" fill="url(#linear-gradient-34)"/><g id="Group_303" data-name="Group 303"><path id="Path_317" data-name="Path 317" d="M166.72,46.08a.86.86,0,0,0-.54,1.08.85.85,0,0,0,.53.53,3.05,3.05,0,0,0,2.79,0,.85.85,0,0,0,.54-1.08.82.82,0,0,0-.53-.53A3.05,3.05,0,0,0,166.72,46.08Z" fill="url(#linear-gradient-35)"/></g></g></g><g id="Group_308" data-name="Group 308"><g id="Group_307" data-name="Group 307"><path id="Path_318" data-name="Path 318" d="M147.3,36s0,0,0,.06,0,0,0,0,0,0,0,.06l0,0a.33.33,0,0,1,0,.06l.05.08h0l.07.09h0l.08.08.06.05.06,0,.07,0,.07.05.19.1.06,0,.15.06.06,0,.1,0,.07,0,.11,0,.08,0,.22,0h.78l.09,0h.1l.08,0,.12,0,.07,0,.21-.07.1,0,0,0,.15-.08a1,1,0,0,0,.58-.81V40a1,1,0,0,1-.58.81l-.14.08-.06,0-.08,0h0l-.21.07h-.07l-.12,0h-1l-.23,0h0l-.06,0-.11,0-.08,0-.1,0h-.06l-.15-.06-.06,0-.18-.1h0l-.05,0-.07-.05-.05,0-.06,0h0l-.07-.07v0l0,0,0,0h0l-.05-.07v0s0,0,0-.06,0,0,0,0,0,0,0,0,0,0,0-.06,0,0,0,0h0a.13.13,0,0,0,0-.06V35.9A.13.13,0,0,0,147.3,36Z" fill="url(#linear-gradient-36)"/><g id="Group_306" data-name="Group 306"><path id="Path_319" data-name="Path 319" d="M147.88,35.08a.85.85,0,0,0-.54,1.08.89.89,0,0,0,.53.54,3.11,3.11,0,0,0,2.79,0,.86.86,0,0,0,0-1.62A3.05,3.05,0,0,0,147.88,35.08Z" fill="url(#linear-gradient-37)"/></g></g></g><g id="Group_310" data-name="Group 310"><g id="Group_309" data-name="Group 309"><path id="Path_320" data-name="Path 320" d="M151.7,4.91a6.51,6.51,0,0,0-.71-.23l-.11,0-.09,0c-.19-.06-.38-.1-.57-.14l-.12,0-.2,0-.22,0-.4,0h-.8l-.23,0-.26,0h-.1l-.27.06-.21,0h-.06l-.4.14-.1,0h0a5.24,5.24,0,0,0-.48.23l-.05,0-1.62.94L144.5,6l-.05,0L135,11.55h0a3.36,3.36,0,0,1,.54-.26l.1,0a3.53,3.53,0,0,1,.46-.15l.21,0,.37-.08.26,0,.37,0h.31a2.06,2.06,0,0,1,.35,0l.4,0,.42,0,.13,0,.65.15.12,0a7.26,7.26,0,0,1,.7.24l1.85-1.08h0Z" fill="url(#linear-gradient-38)"/><path id="Path_321" data-name="Path 321" d="M166.77,5.58c-.18-.21-.37-.42-.56-.62l-.19-.2-.38-.39,0,0-.05,0-.72-.67-.2-.17c-.26-.23-.53-.46-.8-.67l0,0L163,2.18,162.81,2c-.29-.19-.57-.37-.86-.54l-.7-.38L161.06,1l-.57-.26-.1,0,0,0c-.2-.08-.4-.16-.59-.22l-.07,0a4.91,4.91,0,0,0-.51-.15l-.05,0-.22,0-.22-.06-.28,0-.2,0h0L157.76,0h-.08l-.3,0h-.79l-.46.05H156a4.37,4.37,0,0,0-.52.12h0l-.06,0-.4.14-.07,0-.07,0-.37.18-.07,0-.06,0-1.61.94-.12.06-.07,0-.06,0L143,7.25l.12-.06a2.53,2.53,0,0,1,.37-.18l.14-.06.4-.14.08,0a4.37,4.37,0,0,1,.52-.12l.13,0c.15,0,.3,0,.46-.06h.14c.2,0,.4,0,.61,0l.34,0h.08l.45.06.2,0,.28.06.22,0,.27.07.51.16.07,0c.2.07.4.14.6.23l.14.06.56.25.19.1c.24.12.47.24.7.38s.58.34.86.53l.21.15c.27.18.53.37.8.57l0,0c.27.22.54.44.8.67l.2.18c.24.21.48.44.71.67l.07.06c.13.13.26.26.38.4l.2.2c.19.2.37.4.55.61l1.86-1.07h0Z" fill="url(#linear-gradient-39)"/><path id="Path_322" data-name="Path 322" d="M194.47,39.12l0-.29c0-.18,0-.35-.05-.53,0,0,0,0,0-.06a.78.78,0,0,1,0-.14c0-.23-.07-.45-.12-.68a1.18,1.18,0,0,0,0-.2s0-.1,0-.15-.05-.2-.08-.29-.08-.37-.13-.56,0-.1,0-.14-.06-.21-.1-.31-.08-.3-.13-.44l0-.15-.12-.36c-.05-.12-.09-.24-.14-.37a.76.76,0,0,0,0-.11c-.06-.15-.12-.31-.19-.46l-.11-.29,0-.06c-.11-.26-.23-.53-.36-.79h0l0,0c-.12-.25-.25-.49-.38-.74l0-.06c0-.1-.11-.2-.17-.3l-.23-.43a.41.41,0,0,1-.07-.11l-.22-.36c-.08-.12-.14-.22-.2-.33l-.09-.13-.27-.41c-.07-.1-.13-.2-.2-.29l-.09-.13-.36-.48-.2-.27-.07-.08c-.23-.3-.47-.59-.72-.88h0l0,0q-.28-.34-.6-.66l-.2-.21-.27-.28-.29-.27-1.85,1.07h0l-9.48,5.51.57.56.2.2q.3.31.6.66h0l0,0c.24.29.48.58.71.88l.27.35.35.48.29.42.28.4.29.47.22.36.31.54.16.3c.14.26.27.52.4.79l0,.05c.13.28.26.57.38.85l.12.28c.08.2.16.39.23.58s.09.25.13.37l.18.51c0,.14.09.29.13.44s.09.3.13.45.1.37.14.56.07.29.1.44a1.42,1.42,0,0,0,0,.2c0,.23.08.45.11.68a.78.78,0,0,1,0,.14c0,.2,0,.39.06.59l0,.29c0,.29,0,.57,0,.85,0,2.77-1,4.72-2.63,5.66l2.17-1.26a3.28,3.28,0,0,1-.31.2l9.48-5.51a4.53,4.53,0,0,0,1.33-1.17,7.32,7.32,0,0,0,1.3-4.49C194.5,39.69,194.48,39.4,194.47,39.12Z" fill="url(#linear-gradient-40)"/><path id="Path_323" data-name="Path 323" d="M188.05,23.62c0-.07,0-.14,0-.21,0-.3,0-.59-.09-.89h0a.68.68,0,0,1,0-.14c0-.18-.05-.37-.09-.55s0-.17,0-.26l-.09-.45a.43.43,0,0,1,0-.05.37.37,0,0,0,0-.09c-.08-.35-.16-.69-.26-1,0,0,0,0,0-.06v0c-.09-.31-.18-.62-.29-.94l0-.1,0-.12c-.09-.27-.19-.54-.29-.8l0-.08v0c-.11-.28-.22-.57-.35-.85l0-.09-.07-.14q-.13-.33-.3-.66l-.06-.14,0-.07c-.13-.28-.27-.56-.42-.83l0,0a.31.31,0,0,0,0-.1l-.4-.71a.83.83,0,0,1-.07-.13l-.06-.1c-.17-.28-.34-.56-.52-.84h0v0c-.19-.29-.38-.58-.58-.86a1,1,0,0,0-.08-.11L183.6,12c-.22-.31-.44-.61-.67-.91l-.05-.06-.06-.07q-.4-.52-.84-1l0-.05-.12-.13-.43-.47-.2-.21-.45-.47-.12-.12,0,0-.19-.18-.32-.3-.21-.19-.31-.27-.22-.19L179,7.07l-.23-.18-.32-.25-.22-.17-.34-.24-.21-.15-.38-.25-.18-.12-.57-.34q-.39-.23-.78-.42l-.21-.1L175,4.57l-.12-.05,0,0c-.22-.09-.44-.18-.66-.25l-.09,0-.56-.17-.06,0L173.18,4l-.24-.06-.32-.06-.22,0h0a3.62,3.62,0,0,0-.46-.06h-.08l-.35,0h0c-.23,0-.45,0-.68,0h-.05l-.1,0-.5,0-.1,0H170a4.76,4.76,0,0,0-.57.13h0l-.07,0c-.15,0-.3.1-.45.15l-.08,0-.07,0-.41.2-.08,0-.06,0-1.61.94-.11,0-.08,0-.06,0L156.79,11l.14-.07.41-.2.15-.06a4,4,0,0,1,.45-.16l.1,0c.19-.06.38-.1.57-.14l.15,0,.5-.06h.84l.38,0h.09l.5.07.22,0,.32.06.24.06.3.08.56.17.08,0a6.93,6.93,0,0,1,.67.25l.15.06.63.29.21.1.79.42.56.34.18.12.38.25.22.15.33.24.22.17.32.24.23.19.31.25.22.19.31.28.21.19.32.3.19.18a1.36,1.36,0,0,1,.17.17l.46.47.2.21.42.47.16.17.83,1,.11.14c.23.3.45.6.67.91l.13.18c.2.29.39.58.58.87v0c.18.28.35.56.52.84l.13.23.4.71.08.14.42.83.1.21.3.66c0,.07.07.15.1.23.12.28.24.57.35.85l0,.09c.1.27.2.54.29.81l.08.23c.1.31.2.63.28.94l0,.09c.09.34.18.69.25,1l0,.14c0,.15.06.3.09.45s0,.17,0,.25.06.37.08.56a.68.68,0,0,1,0,.14c0,.3.07.6.09.89a1.7,1.7,0,0,1,0,.22c0,.3,0,.59,0,.88a11.1,11.1,0,0,1-.13,1.73l1.87-1.08v0L188,26.25a12.47,12.47,0,0,0,.12-1.73C188.08,24.21,188.07,23.92,188.05,23.62Z" fill="url(#linear-gradient-41)"/></g><path id="Path_324" data-name="Path 324" d="M176.61,32.81a12.47,12.47,0,0,0,.13-1.73c0-6.9-5.13-15.47-11.5-19.15-4.13-2.39-7.75-2.13-9.8.22a19.47,19.47,0,0,0-4.83-4.08c-5.12-3-9.39-1.39-10.24,3.41-4.54-1.73-8,.57-8,5.73,0,5.81,4.32,13,9.68,16.12l31.38,18.11c5.36,3.1,9.72.9,9.74-4.9C183.17,41.93,180.43,36.43,176.61,32.81Z" fill="url(#linear-gradient-42)"/><path id="Path_325" data-name="Path 325" d="M180.15,50.24a2.91,2.91,0,0,1-2.17.82,7.74,7.74,0,0,1-3.68-1.16L142.93,31.78c-4.78-2.75-8.8-9.43-8.78-14.57,0-1.3.31-4.25,3-4.49a5.37,5.37,0,0,0-1.2,3.69c0,5.14,4,11.8,8.79,14.56l31.37,18.11a7.5,7.5,0,0,0,3.67,1.17A2,2,0,0,0,180.15,50.24Z" fill="#2c519b"/><path id="Path_326" data-name="Path 326" d="M181.36,46.53a5.3,5.3,0,0,1-1.21,3.7l-.34,0a7.61,7.61,0,0,1-3.68-1.17L144.76,31C140,28.21,136,21.54,136,16.4a5.39,5.39,0,0,1,1.2-3.68l.36,0a6.34,6.34,0,0,1,2.19.45l2,.78.25-1.42,1.57.6L144,11a4.57,4.57,0,0,1,1.24-2.58,3.27,3.27,0,0,1,.54,0,8.28,8.28,0,0,1,4,1.25,17.87,17.87,0,0,1,4.38,3.7l1.35,1.55,1.26-1.45.56.64,1.35-1.54a2.28,2.28,0,0,1,.42-.4,4.11,4.11,0,0,1,.78-.07,9.34,9.34,0,0,1,4.53,1.43C170.11,16.8,175,24.86,175,31.06a12.47,12.47,0,0,1-.12,1.49l-.13.91.68.64C178.92,37.46,181.38,42.57,181.36,46.53Z" fill="url(#linear-gradient-43)"/><path id="Path_327" data-name="Path 327" d="M143.57,13.11l-1.83.82.25-1.42.13-.71c.26-1.46,1-3.15,3.07-3.4A4.6,4.6,0,0,0,144,11Z" fill="#2c519b"/><path id="Path_328" data-name="Path 328" d="M157.26,14.06l-1.82.81,1.26-1.45.08-.1A3.66,3.66,0,0,1,159,12.11a2.28,2.28,0,0,0-.42.4Z" fill="#2c519b"/></g></g><path id="Path_329" data-name="Path 329" d="M168.45,52.13v7.21a6.16,6.16,0,0,0,3.24,5.43l18.4,10a6.72,6.72,0,0,1,3.53,5.91v52.16a4.22,4.22,0,0,1-4.21,4.22,4.16,4.16,0,0,1-2.2-.62l-8.69-5.3" fill="none" stroke="#d1d0cf" stroke-miterlimit="10"/><path id="Path_330" data-name="Path 330" d="M149.13,41.15v6.64a3,3,0,0,1-4.44,2.64L122.16,38.15a3.66,3.66,0,0,0-5,1.45,3.7,3.7,0,0,0-.45,1.75V57.89" fill="none" stroke="#d1d0cf" stroke-miterlimit="10"/><line id="Line_25" data-name="Line 25" x1="157.85" y1="45.91" x2="157.85" y2="64.69" fill="none" stroke="#d1d0cf" stroke-miterlimit="10"/></g></g></g></g></g></svg>