<svg xmlns="http://www.w3.org/2000/svg" viewBox="0 0 299.25 232.86"><g id="Layer_2" data-name="Layer 2"><g id="Layer_1-2" data-name="Layer 1"><g id="Group_67" data-name="Group 67"><path id="Path_106" data-name="Path 106" d="M263.25,71.64C258.5,42.85,226.52,24,192.8,30.1a71,71,0,0,0-23.4,8.64c-13.33,7.87-14.68,20.71-25.66,31-21,19.65-30.43,7.66-49.8,1.28-28.6-9.42-79.62-20.55-88.2,24.14-8.64,45,57,44.77,74.75,51.81,13.84,5.47,23.51,16.29,26.66,29.24,0,.19.09.39.14.59,6.69,26,22.86,59.88,54.11,55.76,50.35-6.63,52.38-39.42,47.17-68.68,0-.08-3.25-19.74-3.26-19.82-2-11.08,25.51-15.28,35.74-22.9C257.27,109,266.36,90.5,263.25,71.64Z" fill="#ffcc8f" opacity="0.5" style="isolation:isolate"/><path id="Path_107" data-name="Path 107" d="M188.38,6.82C152,11.33,27.11,22.25,161.31,123.48c17.53,13.22,32.61,51.42,64.53,43.44s72.79-45.63,46.88-58.16C216.12,81.41,343.13-12.42,188.38,6.82Z" fill="#ffcc8f" opacity="0.3" style="isolation:isolate"/><path id="Path_108" data-name="Path 108" d="M216.68,80.37q-2.22-1.44-4.3-3.06c-11.26-8.78-17-22.56-26.7-32.85-9.47-10.06-20.35-19.83-32-27.31-24.38-15.69-53-21.33-79.46-13.93C46,11.13,21.72,32.2,9.43,58.87a106.15,106.15,0,0,0-1,85.17c10.52,24.5,31.73,47.69,57.33,56.34,19.48,6.57,40.08,4.35,59.42.53,26.77-5.3,52.08-10.82,80.25-7.59,17.38,2,33.43,5.71,50.1.92,15.5-4.45,28.53-17.1,36.07-31.05a64,64,0,0,0,5.75-45.88c-3.06-11.92-11-24.15-22.92-27.47-7.85-2.2-15.83-.13-23.78.21A58.61,58.61,0,0,1,216.68,80.37Z" fill="#ffcc8f"/><g id="Group_290" data-name="Group 290"><g id="Group_99" data-name="Group 99"><path id="Rectangle_42" data-name="Rectangle 42" d="M169.57,105.11h.14a1,1,0,0,1,1,1v7a1,1,0,0,1-1,1h-.14a1,1,0,0,1-1-1v-7a1,1,0,0,1,1-1Z" transform="translate(-31.78 94.31) rotate(-28.52)" fill="#f4b673"/><rect id="Rectangle_43" data-name="Rectangle 43" x="169.4" y="102.67" width="2.45" height="10" rx="1.1" transform="translate(-30.71 94.55) rotate(-28.52)" fill="#f4b673"/><rect id="Rectangle_44" data-name="Rectangle 44" x="170.22" y="100.49" width="2.45" height="10" rx="1.1" transform="translate(-29.56 94.66) rotate(-28.52)" fill="#f4b673"/><rect id="Rectangle_45" data-name="Rectangle 45" x="171.33" y="98.03" width="2.9" height="10" rx="1.3" transform="translate(-26.68 76.86) rotate(-23.33)" fill="#f4b673"/><path id="Path_134" data-name="Path 134" d="M167.43,106.27c.91-.88,2.11.85,2.9,2.33a2,2,0,0,0,2.69.86h0a2,2,0,0,0,1-2.32q-.47-2.2-1.14-4.35c-.88-2.17.15-5.58.83-5.58s1,.5,1.14,2c.1,1.21,1.66,4.34,2.82,6.34a14.61,14.61,0,0,1,1.71,4.45,17.43,17.43,0,0,1,.85,5c-.21,3.35,5.09,9,5.08,9.59s-7.46,4.14-8.95,3-3.25-7.65-4-9.17S165.93,107.73,167.43,106.27Z" fill="#f4b673"/></g><path id="Path_135" data-name="Path 135" d="M45.86,173.82H102c-.52-6.35-.83-12.79-1.07-19,0-1-.07-2-.11-3-.2-5.73-.35-11.25-.55-16.3,0-.37,0-.74,0-1.11-.36-8.57-.89-15.75-2.08-20.31a19,19,0,0,0-6.45-10c-7.29-6-17.49-6.47-17.54-6.46s-27.65.5-26.91,15.84c.58,12.19,2.22,20.51.16,45.24C46.93,164.55,46.41,169.54,45.86,173.82Z" fill="#a760ff"/><path id="Path_136" data-name="Path 136" d="M67.6,157.36l.28.32,7.33,8.16c5.1-.45,11.66-4,18.06-8.44,2.58-1.79,5.14-3.73,7.56-5.66,3.63-2.9,7-5.82,9.64-8.24,3.87-3.51,6.35-6,6.35-6a23.62,23.62,0,0,0-2.15-10.34,22.65,22.65,0,0,0-2.46-4.27,23.73,23.73,0,0,1-4.2,5.55,34.84,34.84,0,0,1-7.77,5.89c-.88.48-1.8,1-2.79,1.41a60.54,60.54,0,0,0-7.62,4.37A244.05,244.05,0,0,0,67.6,157.36Z" fill="#d5b2ff"/><path id="Path_137" data-name="Path 137" d="M68,162.8s-33.66-46.73-17-58.57c13.54-9.64,28,53.21,28,53.21Z" fill="#d5b2ff"/><circle id="Ellipse_80" data-name="Ellipse 80" cx="73.26" cy="160.04" r="6.18" fill="#d5b2ff"/><g id="Group_108" data-name="Group 108"><path id="Path_138" data-name="Path 138" d="M93.62,65.56s1.7-8.94-2-11-5.76,2.81-5.76,2.81Z" fill="#1a1a1a"/><path id="Path_139" data-name="Path 139" d="M74.16,104.59c-.41-.08-.81-.19-1.21-.3-3.76-1.1-4.75-4.31-4.56-7.93a104,104,0,0,0,.16-13.56c4.62-4.31,15,.64,15,.64a26.23,26.23,0,0,0-1,12.22,1.85,1.85,0,0,0,0,.23,7.23,7.23,0,0,1-8.46,8.7Z" fill="#f9b57d"/><path id="Path_140" data-name="Path 140" d="M82.58,95.66c-6-.18-11.52-1.73-14-3.29a80.4,80.4,0,0,0-.07-9.57c4.62-4.31,15,.64,15,.64A26.23,26.23,0,0,0,82.58,95.66Z" fill="#e89c64"/><path id="Path_141" data-name="Path 141" d="M65.58,81.6a50.94,50.94,0,0,0,3.47,6.78c1.33,1.82,9.25,5.49,16.7,4.78,2.46-.24,7.38-10.5,7.39-14.12s-.54-3.84-.81-5.52c-.5-3.09.73-3,1.23-6s-1.24-10.6-4.47-12.73-16.22-4.8-24,3S65.58,81.6,65.58,81.6Z" fill="#f9b57d"/><path id="Path_142" data-name="Path 142" d="M69.89,73.49s0,3,1.5,3,2.43-6.42,1.87-10.07S78.6,60.14,81,61.12s13.35,1.27,16.16-3.93a7.11,7.11,0,0,1-2.52,0s3.5-2.39,3.5-4.22c-4,2.5-15.08-8.34-27.34-3.37a18.45,18.45,0,0,0-10,10.11c-2.3,5.52-2.7,16,6,24.46,0,0,2.52-3,1-9.42Z" fill="#1a1a1a"/><path id="Path_143" data-name="Path 143" d="M71.38,77.64a1.41,1.41,0,0,1-2.42,1,7.13,7.13,0,0,1-2-5C66.93,69.35,71.69,66.91,71.38,77.64Z" fill="#f9b57d"/><g id="Group_102" data-name="Group 102"><g id="Group_101" data-name="Group 101"><g id="Group_100" data-name="Group 100"><path id="Path_144" data-name="Path 144" d="M82.36,68.64c0,.06,0,.12,0,.18a.93.93,0,0,1-.17.49c-.23.28-.51.2-.78.13a7.29,7.29,0,0,0-3.71,0,1.21,1.21,0,0,1-.75.06.5.5,0,0,1-.32-.38c-.06-.35.27-.6.55-.74a7.88,7.88,0,0,1,4.22-.76A1.11,1.11,0,0,1,82.36,68.64Z" fill="#1a1a1a"/></g></g></g><g id="Group_105" data-name="Group 105"><g id="Group_104" data-name="Group 104"><g id="Group_103" data-name="Group 103"><path id="Path_145" data-name="Path 145" d="M88.34,68.69a1.08,1.08,0,0,0,0,.18.82.82,0,0,0,.15.5c.2.28.46.2.69.13a6,6,0,0,1,3.35,0,.92.92,0,0,0,.67,0,.45.45,0,0,0,.29-.37.76.76,0,0,0-.5-.74,6.45,6.45,0,0,0-3.8-.76A1,1,0,0,0,88.34,68.69Z" fill="#1a1a1a"/></g></g></g><g id="Group_106" data-name="Group 106"><path id="Path_146" data-name="Path 146" d="M90.78,72.75c0,.68-.36,1.23-.8,1.23s-.79-.55-.79-1.23.36-1.24.79-1.24S90.78,72.07,90.78,72.75Z" fill="#1a1a1a"/></g><g id="Group_107" data-name="Group 107"><path id="Path_147" data-name="Path 147" d="M80.69,72.47c0,.68-.35,1.23-.79,1.23s-.79-.55-.79-1.23.35-1.23.79-1.23S80.69,71.79,80.69,72.47Z" fill="#1a1a1a"/></g><path id="Path_148" data-name="Path 148" d="M87.09,73.17s0,3.41.75,4.39,1.29,1.83-1.47,2.25" fill="none" stroke="#dd8d57" stroke-linecap="round" stroke-linejoin="round" stroke-width="0.25"/><path id="Path_149" data-name="Path 149" d="M81,83.48a8.68,8.68,0,0,0,4.24,1.64,6.08,6.08,0,0,0,3.9-1s-.75,3.18-4.6,2.7A4.24,4.24,0,0,1,81,83.48Z" fill="#fff"/></g><g id="Group_196" data-name="Group 196"><g id="Group_195" data-name="Group 195"><g id="Group_125" data-name="Group 125"><path id="Path_150" data-name="Path 150" d="M152.23,88.07l-.92,1.11.43.44a6.24,6.24,0,0,0,.84-.36S152.23,88.07,152.23,88.07Z" fill="#1a1a1a"/><path id="Path_151" data-name="Path 151" d="M178.32,117.07l1-1.16-1-.12-.37.49Z" fill="#1a1a1a"/><g id="Group_112" data-name="Group 112"><g id="Group_111" data-name="Group 111"><g id="Group_110" data-name="Group 110"><g id="Group_109" data-name="Group 109"><path id="Path_152" data-name="Path 152" d="M151.32,90.9l4.86,10.67,2.8,6.15,3,6.58.73,1.62,2.07,4.55a2,2,0,0,0,2.38,1.34l4.78-2,.58-.24,5.43-2.24c.71-.3.91-1.35.45-2.35L175,107.69l-1.18-2.52-.23-.49-1.43-3.05-.15-.33-1.46-3.13-.14-.31-1.61-3.44-3.16-6.78a2.24,2.24,0,0,0-2.18-1.44L152,88.68C151.17,88.87,150.85,89.86,151.32,90.9Zm15.09,3.65a.61.61,0,0,0-.68-.18.69.69,0,0,0,0-.13.56.56,0,0,0-.5.31.5.5,0,0,1,.33-.5A1,1,0,0,1,166.41,94.55Z" fill="#1a1a1a"/></g></g></g></g><g id="Group_116" data-name="Group 116"><g id="Group_115" data-name="Group 115"><g id="Group_114" data-name="Group 114"><g id="Group_113" data-name="Group 113"><path id="Path_153" data-name="Path 153" d="M152.25,89.78l4.86,10.67,2.8,6.15,3,6.58.73,1.62,2.07,4.55a2,2,0,0,0,2.38,1.34l4.78-2,.58-.24,5.43-2.24c.71-.3.91-1.35.45-2.35l-3.41-7.32-1.18-2.52-.23-.49-1.43-3.06-.15-.32-1.46-3.13-.14-.31-1.61-3.44-3.16-6.78a2.24,2.24,0,0,0-2.18-1.44L153,87.56C152.1,87.75,151.78,88.74,152.25,89.78Zm15.09,3.65a.61.61,0,0,0-.68-.18,1.12,1.12,0,0,0,0-.13.58.58,0,0,0-.5.32.48.48,0,0,1,.33-.5,1,1,0,0,1,.9.49Z" fill="#333"/></g></g></g></g><g id="Group_120" data-name="Group 120"><g id="Group_119" data-name="Group 119"><g id="Group_118" data-name="Group 118"><g id="Group_117" data-name="Group 117"><path id="Path_154" data-name="Path 154" d="M153.67,91.14l8,17.48,1.64,3.6.37.82,1.94,4.24c.5,1.12,1.58,1.75,2.39,1.42l9.57-3.84c.73-.29.92-1.37.44-2.4l-1.85-4-.46-1-.91-1.94-8.14-17.48a2.29,2.29,0,0,0-2.22-1.5l-10.07,2.28C153.49,89.05,153.19,90.07,153.67,91.14Z" fill="#fff"/></g></g></g></g><g id="Group_124" data-name="Group 124"><g id="Group_123" data-name="Group 123"><g id="Group_122" data-name="Group 122"><g id="Group_121" data-name="Group 121"><path id="Path_155" data-name="Path 155" d="M160.16,86.57l-2.49.55c-.07,0-.09.11,0,.22h0c.05.11.15.18.22.16l2.48-.55c.07,0,.09-.11,0-.22h0C160.32,86.63,160.22,86.55,160.16,86.57Z" fill="gray"/></g></g></g></g></g><g id="Group_188" data-name="Group 188"><g id="Group_127" data-name="Group 127"><g id="Group_126" data-name="Group 126"><path id="Path_156" data-name="Path 156" d="M169.79,100.16l.44.94-.11-.68-.22-.47Zm-10.61-2.3,4.71,10.34a.25.25,0,0,0,.3.17l8.14-2.73c.1,0,.13-.15.07-.28l-4.56-9.86a.24.24,0,0,0-.27-.17l-8.29,2.25a.2.2,0,0,0-.1.28Zm.2,0,8.28-2.27.2.44,1.93,4.18.44.94.22.47,1.78,3.85-1.9.64-6.25,2.08h0Z" fill="#333"/></g></g><g id="Group_129" data-name="Group 129"><g id="Group_128" data-name="Group 128"><path id="Path_157" data-name="Path 157" d="M162,106.34l1.45,3.19a.3.3,0,0,0,.35.2l2.58-.88-.13-.27-2.57.87h0l-1.45-3.18Zm3.41-11.55.12.26,2.43-.65.38.82,1,2.16.21-.06-1.38-3a.33.33,0,0,0-.33-.2Zm-7.6,2.32,1.43,3.15.23-.06L158,97.05l2.63-.7-.12-.27-2.64.7c-.12,0-.17.18-.1.33ZM171,107l.12.27,2.38-.81c.12,0,.15-.19.09-.34l-1.4-3-.2.06.62,1.34.26.58.51,1.1-.66.23-.42.14Z" fill="#00b226"/></g></g><g id="Group_131" data-name="Group 131"><g id="Group_130" data-name="Group 130"><path id="Path_158" data-name="Path 158" d="M166.74,99l1.93-.56-1.09-2.37-1.94.53Z" fill="#333"/></g></g><g id="Group_133" data-name="Group 133"><g id="Group_132" data-name="Group 132"><path id="Path_159" data-name="Path 159" d="M164.32,107.45l2-.67-1.12-2.46-2,.64Z" fill="#333"/></g></g><g id="Group_135" data-name="Group 135"><g id="Group_134" data-name="Group 134"><path id="Path_160" data-name="Path 160" d="M164.48,106.9l1.31-.43-.73-1.61-1.32.42Z" fill="#fff"/></g></g><g id="Group_137" data-name="Group 137"><g id="Group_136" data-name="Group 136"><path id="Path_161" data-name="Path 161" d="M165.49,103.21l2-.61-1.11-2.42-2,.59Z" fill="#333"/></g></g><g id="Group_139" data-name="Group 139"><g id="Group_138" data-name="Group 138"><path id="Path_162" data-name="Path 162" d="M162.78,101.82l.84-.26-.46-1-.85.25Z" fill="#333"/></g></g><g id="Group_141" data-name="Group 141"><g id="Group_140" data-name="Group 140"><path id="Path_163" data-name="Path 163" d="M168.6,101.1l.8-.24-.46-1-.8.24Z" fill="#333"/></g></g><g id="Group_143" data-name="Group 143"><g id="Group_142" data-name="Group 142"><path id="Path_164" data-name="Path 164" d="M167.46,102.6l.81-.25-.46-1-.81.24Z" fill="#333"/></g></g><g id="Group_145" data-name="Group 145"><g id="Group_144" data-name="Group 144"><path id="Path_165" data-name="Path 165" d="M163.72,103.88l.84-.27-.47-1-.84.26Z" fill="#333"/></g></g><g id="Group_147" data-name="Group 147"><g id="Group_146" data-name="Group 146"><path id="Path_166" data-name="Path 166" d="M162.39,103.1l.86-.26-.47-1-.86.25Z" fill="#333"/></g></g><g id="Group_149" data-name="Group 149"><g id="Group_148" data-name="Group 148"><path id="Path_167" data-name="Path 167" d="M163.25,102.84l.84-.25-.47-1-.84.26Z" fill="#333"/></g></g><g id="Group_151" data-name="Group 151"><g id="Group_150" data-name="Group 150"><path id="Path_168" data-name="Path 168" d="M168.27,102.35l.8-.25-.46-1-.8.24Z" fill="#333"/></g></g><g id="Group_153" data-name="Group 153"><g id="Group_152" data-name="Group 152"><path id="Path_169" data-name="Path 169" d="M163.54,99.28l.83-.24-.46-1-.83.23Z" fill="#333"/></g></g><g id="Group_155" data-name="Group 155"><g id="Group_154" data-name="Group 154"><path id="Path_170" data-name="Path 170" d="M163.16,100.54l.84-.25-.46-1-.84.24Z" fill="#333"/></g></g><g id="Group_157" data-name="Group 157"><g id="Group_156" data-name="Group 156"><path id="Path_171" data-name="Path 171" d="M162.7,99.52l.84-.24-.46-1-.85.24Z" fill="#333"/></g></g><g id="Group_159" data-name="Group 159"><g id="Group_158" data-name="Group 158"><path id="Path_172" data-name="Path 172" d="M167.71,104.84l.81-.26-.46-1-.82.25Z" fill="#333"/></g></g><g id="Group_161" data-name="Group 161"><g id="Group_160" data-name="Group 160"><path id="Path_173" data-name="Path 173" d="M168.51,104.58l.81-.26-.47-1-.8.26Z" fill="#333"/></g></g><g id="Group_163" data-name="Group 163"><g id="Group_162" data-name="Group 162"><path id="Path_174" data-name="Path 174" d="M169.91,105.6l.8-.26-.46-1-.8.26Z" fill="#333"/></g></g><g id="Group_165" data-name="Group 165"><g id="Group_164" data-name="Group 164"><path id="Path_175" data-name="Path 175" d="M170.24,104.33l.8-.25-.46-1-.8.25Z" fill="#333"/></g></g><g id="Group_167" data-name="Group 167"><g id="Group_166" data-name="Group 166"><path id="Path_176" data-name="Path 176" d="M168.86,103.31l.8-.25-.46-1-.8.25Z" fill="#333"/></g></g><g id="Group_169" data-name="Group 169"><g id="Group_168" data-name="Group 168"><path id="Path_177" data-name="Path 177" d="M169.06,102.1l.8-.25-.46-1-.8.25Z" fill="#333"/></g></g><g id="Group_171" data-name="Group 171"><g id="Group_170" data-name="Group 170"><path id="Path_178" data-name="Path 178" d="M170.71,105.34l.79-.26-.46-1-.8.25Z" fill="#333"/></g></g><g id="Group_173" data-name="Group 173"><g id="Group_172" data-name="Group 172"><path id="Path_179" data-name="Path 179" d="M167.36,106.12l.82-.26-.47-1-.82.26Z" fill="#333"/></g></g><g id="Group_175" data-name="Group 175"><g id="Group_174" data-name="Group 174"><path id="Path_180" data-name="Path 180" d="M166.06,105.37l.83-.27-.47-1-.83.26Z" fill="#333"/></g></g><g id="Group_177" data-name="Group 177"><g id="Group_176" data-name="Group 176"><path id="Path_181" data-name="Path 181" d="M164.84,100.05l.82-.24-.46-1-.83.24Z" fill="#333"/></g></g><g id="Group_179" data-name="Group 179"><g id="Group_178" data-name="Group 178"><path id="Path_182" data-name="Path 182" d="M165.2,98.8l.82-.23-.46-1-.82.23Z" fill="#333"/></g></g><g id="Group_181" data-name="Group 181"><g id="Group_180" data-name="Group 180"><path id="Path_183" data-name="Path 183" d="M167.23,101.08l.8-.24-.46-1-.81.24Z" fill="#333"/></g></g><g id="Group_183" data-name="Group 183"><g id="Group_182" data-name="Group 182"><path id="Path_184" data-name="Path 184" d="M164.6,106.56l.84-.28-.47-1-.85.27Z" fill="#333"/></g></g><g id="Group_185" data-name="Group 185"><g id="Group_184" data-name="Group 184"><path id="Path_185" data-name="Path 185" d="M160.61,99.29l.85-.24L161,98l-.86.24Z" fill="#333"/></g></g><g id="Group_187" data-name="Group 187"><g id="Group_186" data-name="Group 186"><path id="Path_186" data-name="Path 186" d="M161.08,100.32l.85-.24-.47-1-.85.24Z" fill="#333"/></g></g></g><g id="Group_193" data-name="Group 193"><g id="Group_190" data-name="Group 190"><g id="Group_189" data-name="Group 189"><path id="Path_187" data-name="Path 187" d="M173.5,110.93c.78,1.7.38,3.63-.87,4.29s-2.85-.17-3.6-1.84-.38-3.57.84-4.26S172.73,109.23,173.5,110.93Z" fill="#00b226"/></g></g><g id="Group_192" data-name="Group 192"><g id="Group_191" data-name="Group 191"><path id="Path_188" data-name="Path 188" d="M171.77,113.71l-1.85-.94.12-.6,1.34.68.46-2.3.51.26Z" fill="#fff"/></g></g></g><g id="Group_194" data-name="Group 194"><path id="Path_189" data-name="Path 189" d="M157,94.15l-.43.12,0,.29-.38.1.34-1.77.41-.12.58,1.53-.4.11Zm-.1-.33-.17-.56-.09.63Z" fill="#00b226"/><path id="Path_190" data-name="Path 190" d="M158.37,93.38l.35,0a1.06,1.06,0,0,1-.09.35.63.63,0,0,1-.16.24.59.59,0,0,1-.27.14.56.56,0,0,1-.34,0,.47.47,0,0,1-.24-.22,1,1,0,0,1-.13-.48,1.15,1.15,0,0,1,.12-.68.7.7,0,0,1,.44-.35.5.5,0,0,1,.38,0,.63.63,0,0,1,.23.34l-.33.19a.31.31,0,0,0-.05-.1.27.27,0,0,0-.08-.07h-.11a.29.29,0,0,0-.19.2,1,1,0,0,0,0,.34.74.74,0,0,0,.09.36.16.16,0,0,0,.18.06.26.26,0,0,0,.16-.13A.64.64,0,0,0,158.37,93.38Z" fill="#00b226"/><path id="Path_191" data-name="Path 191" d="M159.73,93l.35,0a1.3,1.3,0,0,1-.08.34.74.74,0,0,1-.17.25.82.82,0,0,1-.28.14.65.65,0,0,1-.34,0,.51.51,0,0,1-.24-.22,1.05,1.05,0,0,1-.13-.49,1.15,1.15,0,0,1,.12-.68.72.72,0,0,1,.45-.35.46.46,0,0,1,.38,0,.59.59,0,0,1,.23.33l-.33.2a.93.93,0,0,0-.05-.1.15.15,0,0,0-.09-.06.09.09,0,0,0-.1,0,.27.27,0,0,0-.2.2,1,1,0,0,0,0,.34.65.65,0,0,0,.1.36.16.16,0,0,0,.18.06.26.26,0,0,0,.16-.13A.68.68,0,0,0,159.73,93Z" fill="#00b226"/><path id="Path_192" data-name="Path 192" d="M160.19,91.88l1.05-.29,0,.36-.66.18,0,.27.61-.17,0,.34-.62.17,0,.33.68-.18,0,.38-1.08.29Z" fill="#00b226"/><path id="Path_193" data-name="Path 193" d="M161.47,91.53l.66-.19a.38.38,0,0,1,.34,0,.52.52,0,0,1,.13.36.71.71,0,0,1-.08.43.58.58,0,0,1-.35.24l-.22.06.05.63-.4.1Zm.45.61.1,0a.25.25,0,0,0,.16-.1.26.26,0,0,0,0-.15.18.18,0,0,0-.05-.12.17.17,0,0,0-.16,0l-.11,0Z" fill="#00b226"/><path id="Path_194" data-name="Path 194" d="M162.68,91.19l1.22-.33,0,.42-.41.11.1,1.28-.4.11-.1-1.28-.41.11Z" fill="#00b226"/><path id="Path_195" data-name="Path 195" d="M164.09,90.81l1.09-.3,0,.36-.68.19,0,.27.63-.17,0,.35-.63.17,0,.34.7-.19,0,.39-1.11.3Z" fill="#00b226"/><path id="Path_196" data-name="Path 196" d="M165.42,90.44l.61-.17a.61.61,0,0,1,.3,0,.41.41,0,0,1,.2.14.7.7,0,0,1,.13.24,1.82,1.82,0,0,1,0,.77,1,1,0,0,1-.11.29.69.69,0,0,1-.42.3l-.61.17Zm.44.28.07.93.1,0a.66.66,0,0,0,.19-.09.35.35,0,0,0,.07-.15,1.08,1.08,0,0,0,0-.31.62.62,0,0,0-.1-.35.22.22,0,0,0-.24,0Z" fill="#00b226"/></g></g></g><g id="Group_278" data-name="Group 278"><path id="Path_197" data-name="Path 197" d="M125.52,128.38c-1.74.1-5.83,4.28-6.09,5.54s-4.88,5.15-7.29,3.38-4.22-14.25,4.5-24.71L130.4,120Z" fill="#efab67"/><path id="Path_198" data-name="Path 198" d="M125.3,128.2a1.37,1.37,0,0,1-1.24-1.51,1.42,1.42,0,0,1,.68-1.07c1.78-1,5-1.42,5.8-1,1.18.65-.24,2.77-3.71,3.44A5.22,5.22,0,0,1,125.3,128.2Z" fill="#efab67"/><path id="Path_199" data-name="Path 199" d="M122.27,124.05c-1.83-.15-2.21-2.64-.55-3.6,2.52-1.46,6.4-1.8,7.5-1.18,1.56.88-.39,3.67-5.22,4.7A4.79,4.79,0,0,1,122.27,124.05Z" fill="#efab67"/><path id="Path_200" data-name="Path 200" d="M119.78,119c-1.76-.53-1.61-3,.22-3.63,2.78-.9,7.25-.62,8.2.22,1.34,1.19-1.37,3.68-6.31,3.68A7.54,7.54,0,0,1,119.78,119Z" fill="#efab67"/><path id="Path_201" data-name="Path 201" d="M117.93,114a1.64,1.64,0,0,1,1.19-2.9c2.43.22,5.86,2,6.37,3,.71,1.43-2.1,2.54-6,.83A6.44,6.44,0,0,1,117.93,114Z" fill="#efab67"/><g id="Group_276" data-name="Group 276"><g id="Group_213" data-name="Group 213"><path id="Path_202" data-name="Path 202" d="M120,103.12l-1,1.11.43.45a9,9,0,0,0,.86-.34S120,103.12,120,103.12Z" fill="#1a1a1a"/><path id="Path_203" data-name="Path 203" d="M145.84,133.36l1-1.16-1.06-.15-.39.49Z" fill="#1a1a1a"/><g id="Group_200" data-name="Group 200"><g id="Group_199" data-name="Group 199"><g id="Group_198" data-name="Group 198"><g id="Group_197" data-name="Group 197"><path id="Path_204" data-name="Path 204" d="M119,106l4.67,11,2.68,6.33,2.88,6.79.71,1.67,2,4.69a2.07,2.07,0,0,0,2.39,1.43l4.92-1.88.6-.23,5.59-2.14c.74-.28,1-1.35.52-2.37l-3.28-7.55-1.13-2.6-.22-.51L140,117.46l-.15-.33-1.4-3.23-.14-.32L136.73,110l-3-7a2.29,2.29,0,0,0-2.19-1.52l-11.69,2.22C118.93,103.9,118.57,104.9,119,106Zm15.28,4.12a.64.64,0,0,0-.69-.2.69.69,0,0,0-.05-.13.57.57,0,0,0-.51.3.5.5,0,0,1,.35-.5,1,1,0,0,1,.9.53Z" fill="#1a1a1a"/></g></g></g></g><g id="Group_204" data-name="Group 204"><g id="Group_203" data-name="Group 203"><g id="Group_202" data-name="Group 202"><g id="Group_201" data-name="Group 201"><path id="Path_205" data-name="Path 205" d="M120,104.86l4.66,11,2.69,6.34,2.88,6.78.7,1.68,2,4.68a2.06,2.06,0,0,0,2.38,1.43l4.93-1.88.59-.23,5.59-2.13c.74-.29,1-1.35.53-2.38l-3.29-7.55-1.13-2.6-.22-.5-1.37-3.15-.14-.34-1.4-3.23-.14-.31-1.54-3.56-3.05-7a2.28,2.28,0,0,0-2.18-1.52l-11.69,2.23C119.9,102.79,119.55,103.79,120,104.86ZM135.28,109a.61.61,0,0,0-.69-.2.78.78,0,0,0-.05-.14.57.57,0,0,0-.51.31.48.48,0,0,1,.35-.5,1,1,0,0,1,.9.53Z" fill="#333"/></g></g></g></g><g id="Group_208" data-name="Group 208"><g id="Group_207" data-name="Group 207"><g id="Group_206" data-name="Group 206"><g id="Group_205" data-name="Group 205"><path id="Path_206" data-name="Path 206" d="M121.42,106.29l7.65,18,1.57,3.7.36.85,1.85,4.38c.49,1.14,1.57,1.82,2.4,1.51l9.86-3.67c.75-.27,1-1.36.51-2.43l-1.78-4.1-.44-1-.87-2-7.83-18a2.32,2.32,0,0,0-2.22-1.58l-10.32,2C121.29,104.15,121,105.18,121.42,106.29Z" fill="#fff"/></g></g></g></g><g id="Group_212" data-name="Group 212"><g id="Group_211" data-name="Group 211"><g id="Group_210" data-name="Group 210"><g id="Group_209" data-name="Group 209"><path id="Path_207" data-name="Path 207" d="M128.15,101.8l-2.55.49c-.07,0-.1.12,0,.23h0c0,.1.15.18.22.17l2.54-.5c.08,0,.1-.12.05-.22h0C128.31,101.86,128.22,101.79,128.15,101.8Z" fill="gray"/></g></g></g></g></g><g id="Group_274" data-name="Group 274"><g id="Group_215" data-name="Group 215"><g id="Group_214" data-name="Group 214"><path id="Path_208" data-name="Path 208" d="M139.16,117.88l.46,1.06-.11-.76-.23-.53ZM127.44,115l4.93,11.64a.3.3,0,0,0,.32.2l9.13-2.8c.11,0,.14-.17.09-.31l-4.78-11.1a.33.33,0,0,0-.3-.2l-9.28,2.26a.21.21,0,0,0-.11.31Zm.21-.05,9.28-2.27.21.48,2,4.7.46,1.06.23.53,1.86,4.34-2.13.65-7,2.13h0Z" fill="#333"/></g></g><g id="Group_217" data-name="Group 217"><g id="Group_216" data-name="Group 216"><path id="Path_209" data-name="Path 209" d="M135.81,116.53,138,116l-1.14-2.66-2.17.53Z" fill="#333"/></g></g><g id="Group_219" data-name="Group 219"><g id="Group_218" data-name="Group 218"><path id="Path_210" data-name="Path 210" d="M132.87,125.82l2.26-.69L134,122.36l-2.27.65Z" fill="#333"/></g></g><g id="Group_221" data-name="Group 221"><g id="Group_220" data-name="Group 220"><path id="Path_211" data-name="Path 211" d="M133.06,125.21l1.47-.45-.77-1.81-1.48.43Z" fill="#fff"/></g></g><g id="Group_223" data-name="Group 223"><g id="Group_222" data-name="Group 222"><path id="Path_212" data-name="Path 212" d="M134.29,121.14l2.21-.62-1.17-2.72-2.22.59Z" fill="#333"/></g></g><g id="Group_225" data-name="Group 225"><g id="Group_224" data-name="Group 224"><path id="Path_213" data-name="Path 213" d="M131.32,119.51l.94-.25-.48-1.15-.95.25Z" fill="#333"/></g></g><g id="Group_227" data-name="Group 227"><g id="Group_226" data-name="Group 226"><path id="Path_214" data-name="Path 214" d="M137.81,118.89l.89-.25-.48-1.12-.9.24Z" fill="#333"/></g></g><g id="Group_229" data-name="Group 229"><g id="Group_228" data-name="Group 228"><path id="Path_215" data-name="Path 215" d="M136.5,120.52l.9-.26-.48-1.13-.91.25Z" fill="#333"/></g></g><g id="Group_231" data-name="Group 231"><g id="Group_230" data-name="Group 230"><path id="Path_216" data-name="Path 216" d="M132.3,121.83l.95-.27-.5-1.15-.94.26Z" fill="#333"/></g></g><g id="Group_233" data-name="Group 233"><g id="Group_232" data-name="Group 232"><path id="Path_217" data-name="Path 217" d="M130.85,120.93l1-.26-.49-1.16-1,.26Z" fill="#333"/></g></g><g id="Group_235" data-name="Group 235"><g id="Group_234" data-name="Group 234"><path id="Path_218" data-name="Path 218" d="M131.81,120.67l.94-.26-.49-1.15-.94.25Z" fill="#333"/></g></g><g id="Group_237" data-name="Group 237"><g id="Group_236" data-name="Group 236"><path id="Path_219" data-name="Path 219" d="M137.4,120.26l.9-.26-.48-1.12-.9.25Z" fill="#333"/></g></g><g id="Group_239" data-name="Group 239"><g id="Group_238" data-name="Group 238"><path id="Path_220" data-name="Path 220" d="M132.24,116.71l.93-.24-.48-1.13-.94.23Z" fill="#333"/></g></g><g id="Group_241" data-name="Group 241"><g id="Group_240" data-name="Group 240"><path id="Path_221" data-name="Path 221" d="M131.78,118.1l.95-.25-.49-1.14-.94.24Z" fill="#333"/></g></g><g id="Group_243" data-name="Group 243"><g id="Group_242" data-name="Group 242"><path id="Path_222" data-name="Path 222" d="M131.3,117l.94-.25-.49-1.14-.94.24Z" fill="#333"/></g></g><g id="Group_245" data-name="Group 245"><g id="Group_244" data-name="Group 244"><path id="Path_223" data-name="Path 223" d="M136.71,123l.91-.27-.49-1.14-.91.26Z" fill="#333"/></g></g><g id="Group_247" data-name="Group 247"><g id="Group_246" data-name="Group 246"><path id="Path_224" data-name="Path 224" d="M137.61,122.75l.9-.27-.48-1.13-.91.26Z" fill="#333"/></g></g><g id="Group_249" data-name="Group 249"><g id="Group_248" data-name="Group 248"><path id="Path_225" data-name="Path 225" d="M139.13,123.93l.9-.27-.49-1.13-.9.26Z" fill="#333"/></g></g><g id="Group_251" data-name="Group 251"><g id="Group_250" data-name="Group 250"><path id="Path_226" data-name="Path 226" d="M139.54,122.53l.89-.26-.48-1.13-.89.26Z" fill="#333"/></g></g><g id="Group_253" data-name="Group 253"><g id="Group_252" data-name="Group 252"><path id="Path_227" data-name="Path 227" d="M138,121.35l.9-.26-.48-1.12-.9.25Z" fill="#333"/></g></g><g id="Group_255" data-name="Group 255"><g id="Group_254" data-name="Group 254"><path id="Path_228" data-name="Path 228" d="M138.29,120l.89-.25-.48-1.12-.89.25Z" fill="#333"/></g></g><g id="Group_257" data-name="Group 257"><g id="Group_256" data-name="Group 256"><path id="Path_229" data-name="Path 229" d="M140,123.66l.88-.27-.48-1.12-.89.26Z" fill="#333"/></g></g><g id="Group_259" data-name="Group 259"><g id="Group_258" data-name="Group 258"><path id="Path_230" data-name="Path 230" d="M136.28,124.44l.92-.28-.49-1.14-.92.27Z" fill="#333"/></g></g><g id="Group_261" data-name="Group 261"><g id="Group_260" data-name="Group 260"><path id="Path_231" data-name="Path 231" d="M134.86,123.56l.93-.27-.49-1.15-.93.26Z" fill="#333"/></g></g><g id="Group_263" data-name="Group 263"><g id="Group_262" data-name="Group 262"><path id="Path_232" data-name="Path 232" d="M133.66,117.61l.92-.24-.48-1.14-.93.24Z" fill="#333"/></g></g><g id="Group_265" data-name="Group 265"><g id="Group_264" data-name="Group 264"><path id="Path_233" data-name="Path 233" d="M134.1,116.23,135,116l-.49-1.13-.92.23Z" fill="#333"/></g></g><g id="Group_267" data-name="Group 267"><g id="Group_266" data-name="Group 266"><path id="Path_234" data-name="Path 234" d="M136.28,118.83l.91-.25-.48-1.13-.91.25Z" fill="#333"/></g></g><g id="Group_269" data-name="Group 269"><g id="Group_268" data-name="Group 268"><path id="Path_235" data-name="Path 235" d="M133.2,124.83l.94-.28-.49-1.16-.94.28Z" fill="#333"/></g></g><g id="Group_271" data-name="Group 271"><g id="Group_270" data-name="Group 270"><path id="Path_236" data-name="Path 236" d="M129,116.64l1-.24-.49-1.15-1,.24Z" fill="#333"/></g></g><g id="Group_273" data-name="Group 273"><g id="Group_272" data-name="Group 272"><path id="Path_237" data-name="Path 237" d="M129.47,117.8l1-.25-.49-1.15-1,.24Z" fill="#333"/></g></g></g><g id="Group_275" data-name="Group 275"><path id="Path_238" data-name="Path 238" d="M126.52,111.71l.37,0a.52.52,0,0,1,0,.27.43.43,0,0,1-.15.2.66.66,0,0,1-.27.12.88.88,0,0,1-.36,0,.5.5,0,0,1-.28-.16.75.75,0,0,1-.2-.37.66.66,0,0,1,0-.53.67.67,0,0,1,.44-.29.72.72,0,0,1,.41,0,.57.57,0,0,1,.28.25l-.33.17-.06-.08a.24.24,0,0,0-.1,0,.24.24,0,0,0-.12,0,.26.26,0,0,0-.18.16.5.5,0,0,0,0,.27.47.47,0,0,0,.14.28.27.27,0,0,0,.36-.08A.45.45,0,0,0,126.52,111.71Z" fill="#00b226"/><path id="Path_239" data-name="Path 239" d="M128.12,111.47l-.72.18a.19.19,0,0,0,.23.15.24.24,0,0,0,.09-.06.18.18,0,0,0,0-.07l.36-.06a.44.44,0,0,1-.14.25.67.67,0,0,1-.32.15.76.76,0,0,1-.3,0,.38.38,0,0,1-.22-.13.48.48,0,0,1-.14-.25.49.49,0,0,1,0-.39.58.58,0,0,1,.36-.23.74.74,0,0,1,.33,0,.4.4,0,0,1,.22.14.62.62,0,0,1,.14.28Zm-.41-.08a.3.3,0,0,0-.09-.13.15.15,0,0,0-.13,0,.15.15,0,0,0-.12.1.22.22,0,0,0,0,.14Z" fill="#00b226"/><path id="Path_240" data-name="Path 240" d="M128.14,110.87l.34-.08,0,.15a.44.44,0,0,1,.06-.16.24.24,0,0,1,.12-.07.41.41,0,0,1,.19,0l0,.28a.21.21,0,0,0-.11,0,.12.12,0,0,0-.09.09.59.59,0,0,0,0,.32l.08.31-.36.09Z" fill="#00b226"/><path id="Path_241" data-name="Path 241" d="M129.38,110.19l.08.36.2,0,.07.26-.2,0,.08.33a.13.13,0,0,0,0,.08.09.09,0,0,0,.07,0l.11,0,.08.24a.85.85,0,0,1-.24.09.34.34,0,0,1-.2,0,.2.2,0,0,1-.12-.08.43.43,0,0,1-.09-.22l-.08-.33-.13,0-.07-.27.13,0,0-.17Z" fill="#00b226"/><path id="Path_242" data-name="Path 242" d="M129.76,110.09l.36-.08.06.24-.36.09Zm.09.36.35-.09.24.94-.36.09Z" fill="#00b226"/><path id="Path_243" data-name="Path 243" d="M130.84,110.21l.17,0,.06.27-.17,0,.17.67-.36.09-.17-.67-.13,0-.07-.26.14,0v0a.51.51,0,0,1,0-.13.17.17,0,0,1,0-.12.19.19,0,0,1,.08-.1.51.51,0,0,1,.17-.07l.28,0V110l-.11,0a.09.09,0,0,0-.06,0,.14.14,0,0,0,0,.06A.29.29,0,0,0,130.84,110.21Z" fill="#00b226"/><path id="Path_244" data-name="Path 244" d="M131.06,109.77l.36-.09.06.25-.36.09Zm.09.36.36-.09.23.94-.36.08Z" fill="#00b226"/><path id="Path_245" data-name="Path 245" d="M132.58,110.38l.35,0a.46.46,0,0,1-.05.2.42.42,0,0,1-.13.16.62.62,0,0,1-.25.11,1.07,1.07,0,0,1-.25,0,.45.45,0,0,1-.2,0,.53.53,0,0,1-.14-.12.45.45,0,0,1-.1-.21.46.46,0,0,1,0-.26.47.47,0,0,1,.06-.15A.57.57,0,0,1,132,110a.85.85,0,0,1,.26-.11.59.59,0,0,1,.37,0,.45.45,0,0,1,.23.2l-.33.13a.16.16,0,0,0-.08-.08.24.24,0,0,0-.12,0,.19.19,0,0,0-.13.1.38.38,0,0,0,0,.21.34.34,0,0,0,.1.16.23.23,0,0,0,.16,0,.26.26,0,0,0,.11-.07A.24.24,0,0,0,132.58,110.38Z" fill="#00b226"/><path id="Path_246" data-name="Path 246" d="M133.34,109.91l-.35,0a.78.78,0,0,1,0-.16.31.31,0,0,1,.09-.11.32.32,0,0,1,.12-.08.6.6,0,0,1,.19-.06l.26,0a.37.37,0,0,1,.18,0,.22.22,0,0,1,.1.09.38.38,0,0,1,.06.13l.1.42a.42.42,0,0,0,0,.1.24.24,0,0,0,.06.09l-.34.08,0,0,0-.06a.76.76,0,0,1-.11.14.85.85,0,0,1-.22.09.36.36,0,0,1-.27,0,.26.26,0,0,1-.11-.36.45.45,0,0,1,.2-.16l.25-.12.12-.07a.19.19,0,0,0,0-.09.17.17,0,0,0-.1,0,.31.31,0,0,0-.13.06A.18.18,0,0,0,133.34,109.91Zm.36.11-.14.09a.27.27,0,0,0-.12.09.1.1,0,0,0,0,.07s0,0,.05.06a.1.1,0,0,0,.09,0,.21.21,0,0,0,.1-.06.15.15,0,0,0,.06-.09.37.37,0,0,0,0-.11Z" fill="#00b226"/><path id="Path_247" data-name="Path 247" d="M134.46,108.93l.09.36.2-.05.06.26-.2,0,.08.33a.2.2,0,0,0,0,.08s0,0,.06,0a.33.33,0,0,0,.1-.06l.09.25a1,1,0,0,1-.24.09.46.46,0,0,1-.2,0,.17.17,0,0,1-.12-.08.47.47,0,0,1-.09-.22l-.08-.33-.13,0-.07-.26.13,0,0-.17Z" fill="#00b226"/><path id="Path_248" data-name="Path 248" d="M136.09,109.5l-.72.18a.5.5,0,0,0,.08.12.16.16,0,0,0,.15,0,.19.19,0,0,0,.1,0l.05-.07.36-.06a.58.58,0,0,1-.15.25.73.73,0,0,1-.31.14.8.8,0,0,1-.31,0,.42.42,0,0,1-.21-.13.48.48,0,0,1-.14-.25.49.49,0,0,1,0-.39.56.56,0,0,1,.36-.23.73.73,0,0,1,.33,0,.5.5,0,0,1,.22.13.69.69,0,0,1,.13.29Zm-.4-.08a.33.33,0,0,0-.1-.14.19.19,0,0,0-.24.08h0a.32.32,0,0,0,0,.14Z" fill="#00b226"/></g></g><g id="Group_277" data-name="Group 277"><path id="Path_249" data-name="Path 249" d="M113.78,115.89c.8-1.55,3.3-4.42,4.22-4.63l.1,0a1.24,1.24,0,0,1,.38-.09c1.83,0,4.54,1,5,1.68.66,1-1.28,2.65-4.32,1.72h0a.8.8,0,0,0-.78.19l-.87.85a18.38,18.38,0,0,1-1.7,1.6C114.72,117.74,113.22,117,113.78,115.89Z" fill="#f4b673"/><path id="Path_250" data-name="Path 250" d="M119.06,116l.14,0a1.75,1.75,0,0,1,.68-.17c2.49-.1,6.21,1.24,6.85,2.2.92,1.36-.69,1.8-5.7,1.29-.24,0-.63,0-.84,0-.48,0-3.15,2.51-3.48,2.69-1.07.56-2-1.3-1.41-2.37C116.1,118,118.15,116.22,119.06,116Z" fill="#f4b673"/><path id="Path_251" data-name="Path 251" d="M117.46,123.09c1-1,4.23-2.15,4.39-2.2,2.3-.68,5.51,0,6.34.76,1.17,1.06-.34,2.47-4.49,2.31a8.28,8.28,0,0,0-2.62.34,6.1,6.1,0,0,1-1.17.51,4,4,0,0,1-1.12.39C117.76,125.39,116.73,123.83,117.46,123.09Z" fill="#f4b673"/><path id="Path_252" data-name="Path 252" d="M120,127.42a10.81,10.81,0,0,1,4.75-1.71l.17,0h0c1.93-.66,5.15-.5,5.89.1,1,.85-.73,2.68-4.28,2.7a5.22,5.22,0,0,1-1.52-.17l0,0a7.75,7.75,0,0,1-2.6,1.34,5.17,5.17,0,0,1-1.51.28,1.38,1.38,0,0,1-.86-2.48Z" fill="#f4b673"/></g><path id="Path_253" data-name="Path 253" d="M141.5,111.41a2.36,2.36,0,0,0-2.88-1.18c-.48.14.08,4.67,1.8,4.86C141.8,115.24,142.19,113.1,141.5,111.41Z" fill="#f4b673"/><path id="Path_254" data-name="Path 254" d="M125.19,117.91c.2-.53.72-.52,1.2-.39.69.19.85.63.74,1.08s-.49.86-1.51.53C124.78,118.87,125.19,117.91,125.19,117.91Z" fill="#f8d3ab"/><path id="Path_255" data-name="Path 255" d="M126.25,122.08c.11-.63.69-.75,1.26-.72.81.06,1.08.5,1.07,1s-.34,1.07-1.56.95C126,123.25,126.25,122.08,126.25,122.08Z" fill="#f8d3ab"/><path id="Path_256" data-name="Path 256" d="M129.24,126.29c0-.51.45-.68.9-.73.65-.06.92.26,1,.68s-.13.89-1.1,1C129.21,127.24,129.24,126.29,129.24,126.29Z" fill="#f8d3ab"/><path id="Path_257" data-name="Path 257" d="M121.36,112.71c.22-.6.82-.61,1.37-.46.79.2,1,.7.86,1.22s-.53,1-1.71.64C120.91,113.81,121.36,112.71,121.36,112.71Z" fill="#f8d3ab"/><path id="Path_258" data-name="Path 258" d="M119.74,127.68c-1.83.7-2.46-2.39,1.73-3.51,0,0-.79-2.93-1.4-2.69s-4.56,2.69-2.89.08l-.52-3.81s-1.35.38-.4-1-1.48-1.62-1.48-1.62.37-1.83-1.08.89c-1.34,2.48-7.13,13.91-2,20.78s9.18-8.16,13.82-8.46Z" fill="#f4b673"/></g><g id="Group_279" data-name="Group 279"><path id="Path_259" data-name="Path 259" d="M162.34,118.75h0a1.48,1.48,0,0,0-.06-2.09h0l-6.63-6.26a1.47,1.47,0,0,0-2.09.06h0c-.56.59-.16,1.73.44,2.29l6.24,6.06A1.49,1.49,0,0,0,162.34,118.75Z" fill="#f4b673"/><path id="Path_260" data-name="Path 260" d="M162.45,115.93h0a1.46,1.46,0,0,0-.06-2.09l-6.62-6.26a1.48,1.48,0,0,0-2.09.06h0c-.56.6-.14,1.76.46,2.32l6.22,6A1.46,1.46,0,0,0,162.45,115.93Z" fill="#f4b673"/><path id="Path_261" data-name="Path 261" d="M162.66,113h0a1.74,1.74,0,0,0,.16-2.47l-5.68-6.43a1.75,1.75,0,0,0-2.47-.15h0c-.72.64-.26,2.2.38,2.92l5.15,6A1.74,1.74,0,0,0,162.66,113Z" fill="#f4b673"/><path id="Path_262" data-name="Path 262" d="M165.78,109.64a26.39,26.39,0,0,1,5.32,10c1,3.93,9.24,9.41,9.46,10.14s-6.37,6.3-8.52,5.54-6.6-7.57-8-9-11.41-9.87-10.24-12.09,5.84,3.32,5.84,3.32Z" fill="#f4b673"/><path id="Path_263" data-name="Path 263" d="M166.26,110.25c-1.58-1.75-5.26-5.57-5.67-7.24s-1.16-2.44-1.92-2.18c-1.14.38-1.31,4.34.12,6.78s2.45,7.45,4.27,7.71S166.26,110.25,166.26,110.25Z" fill="#f4b673"/></g><path id="Path_264" data-name="Path 264" d="M173.53,97.65c-.54.46-1.85,3.32,0,5.13C177.9,107,173.53,97.65,173.53,97.65Z" fill="#f4b673"/><g id="Group_289" data-name="Group 289"><path id="Path_265" data-name="Path 265" d="M245.67,176.08H189.52c.52-6.34.83-12.78,1.07-19,0-1,.07-2,.11-3.06.2-5.73.35-11.24.55-16.3a8.25,8.25,0,0,1,.05-1.11c1-5.78,2.63-8.35,2.08-20.3-.22-4.58,3.57-7.68,6.45-10.06,7.28-6,17.48-6.46,17.53-6.45s27.65.5,26.91,15.83c-.58,12.19-2.22,20.51-.16,45.25C244.6,166.81,245.12,171.81,245.67,176.08Z" fill="#a760ff"/><path id="Path_266" data-name="Path 266" d="M223.93,159.63l-.28.32-7.33,8.16c-5.09-.45-11.66-4-18.06-8.44-2.58-1.79-5.14-3.73-7.56-5.66-3.63-2.9-7-5.82-9.64-8.24a133.11,133.11,0,0,1-9.77-10.66c-.13-4.16,4.63-3,5.57-5.69.8-2.24.23-2.56.23-2.56s2.55,2,5.84,4.71a76.27,76.27,0,0,0,8.37,5c.87.49,1.79,1,2.78,1.42a60.54,60.54,0,0,1,7.62,4.37A244.05,244.05,0,0,1,223.93,159.63Z" fill="#d5b2ff"/><path id="Path_267" data-name="Path 267" d="M223.57,165.07s33.66-46.73,17-58.57c-13.55-9.64-28,53.21-28,53.21Z" fill="#d5b2ff"/><circle id="Ellipse_81" data-name="Ellipse 81" cx="218.28" cy="162.3" r="6.18" fill="#d5b2ff"/><g id="Group_288" data-name="Group 288"><path id="Path_268" data-name="Path 268" d="M197.91,67.83s-1.7-8.94,2-11,5.76,2.81,5.76,2.81Z" fill="#1a1a1a"/><path id="Path_269" data-name="Path 269" d="M217.37,106.86c.41-.09.82-.19,1.21-.3,3.76-1.1,4.75-4.31,4.56-7.93A104,104,0,0,1,223,85.07c-4.62-4.31-15,.64-15,.64a26.23,26.23,0,0,1,1,12.22,1.85,1.85,0,0,1,0,.23,7.23,7.23,0,0,0,8.46,8.7Z" fill="#f9b57d"/><path id="Path_270" data-name="Path 270" d="M209,97.93c6-.18,11.52-1.74,14-3.29a80.4,80.4,0,0,1,.08-9.57c-4.62-4.31-15,.64-15,.64A26.23,26.23,0,0,1,209,97.93Z" fill="#e89c64"/><path id="Path_271" data-name="Path 271" d="M226,83.87a50.88,50.88,0,0,1-3.46,6.78c-1.34,1.82-9.26,5.49-16.71,4.78-2.46-.24-7.38-10.5-7.39-14.12s.54-3.84.81-5.52c.5-3.1-.73-3-1.23-6s1.25-10.6,4.47-12.74,16.22-4.79,24,3S226,83.87,226,83.87Z" fill="#f9b57d"/><path id="Path_272" data-name="Path 272" d="M221.64,75.76s0,3-1.5,3-2.43-6.42-1.87-10.07-5.34-6.32-7.73-5.34-13.35,1.26-16.16-3.93a7.11,7.11,0,0,0,2.52,0s-3.5-2.39-3.5-4.22c4,2.5,15.08-8.34,27.34-3.37a18.47,18.47,0,0,1,10,10.1c2.3,5.53,2.7,16-6,24.46,0,0-2.53-3-1-9.41Z" fill="#1a1a1a"/><path id="Path_273" data-name="Path 273" d="M220.16,79.91a1.41,1.41,0,0,0,2.41,1,7.13,7.13,0,0,0,2-5C224.6,71.62,219.85,69.17,220.16,79.91Z" fill="#f9b57d"/><g id="Group_282" data-name="Group 282"><g id="Group_281" data-name="Group 281"><g id="Group_280" data-name="Group 280"><path id="Path_274" data-name="Path 274" d="M209.18,70.9a1.21,1.21,0,0,0,0,.19.81.81,0,0,0,.17.49c.23.28.51.2.77.13a7.33,7.33,0,0,1,3.72,0,1.1,1.1,0,0,0,.74.05.47.47,0,0,0,.32-.37c.06-.35-.27-.6-.55-.74a7.88,7.88,0,0,0-4.22-.76A1.09,1.09,0,0,0,209.18,70.9Z" fill="#1a1a1a"/></g></g></g><g id="Group_285" data-name="Group 285"><g id="Group_284" data-name="Group 284"><g id="Group_283" data-name="Group 283"><path id="Path_275" data-name="Path 275" d="M203.19,71c0,.06,0,.12,0,.18a.9.9,0,0,1-.16.5c-.2.28-.46.2-.7.13a5.76,5.76,0,0,0-3.34,0,1.06,1.06,0,0,1-.68,0,.47.47,0,0,1-.28-.37c-.06-.35.24-.6.5-.74a6.44,6.44,0,0,1,3.8-.76A1.05,1.05,0,0,1,203.19,71Z" fill="#1a1a1a"/></g></g></g><g id="Group_286" data-name="Group 286"><path id="Path_276" data-name="Path 276" d="M200.76,75c0,.68.35,1.23.79,1.23s.79-.55.79-1.23-.35-1.24-.79-1.24S200.76,74.34,200.76,75Z" fill="#1a1a1a"/></g><g id="Group_287" data-name="Group 287"><path id="Path_277" data-name="Path 277" d="M210.84,74.74c0,.68.35,1.23.79,1.23s.79-.55.79-1.23-.35-1.24-.79-1.24S210.84,74.05,210.84,74.74Z" fill="#1a1a1a"/></g><path id="Path_278" data-name="Path 278" d="M204.44,75.44s0,3.41-.75,4.39-1.29,1.83,1.48,2.25" fill="none" stroke="#dd8d57" stroke-linecap="round" stroke-linejoin="round" stroke-width="0.25"/><path id="Path_279" data-name="Path 279" d="M210.54,85.75a8.68,8.68,0,0,1-4.24,1.64,6.08,6.08,0,0,1-3.9-1s.75,3.19,4.6,2.7A4.24,4.24,0,0,0,210.54,85.75Z" fill="#fff"/></g></g><path id="Path_280" data-name="Path 280" d="M191.3,136.59c-1.25-3.12-7-14.79-8.36-15.45l-5.6,6.16Q185.17,135.66,191.3,136.59Z" fill="#a760ff"/></g></g></g></g></svg>