<svg xmlns="http://www.w3.org/2000/svg" xmlns:xlink="http://www.w3.org/1999/xlink" viewBox="0 0 296.29 264.28"><defs><linearGradient id="linear-gradient" x1="2674.7" y1="1233.95" x2="2674.71" y2="1234.46" gradientTransform="matrix(87.92, 0, 0, -208.34, -235031.28, 257189.79)" gradientUnits="userSpaceOnUse"><stop offset="0.02" stop-color="#a4a6b6"/><stop offset="1" stop-color="#e4e6eb"/></linearGradient><linearGradient id="linear-gradient-2" x1="2644.16" y1="1236.5" x2="2644.1" y2="1235.99" gradientTransform="matrix(43.96, 0, 0, -163.81, -116071.22, 202354.77)" gradientUnits="userSpaceOnUse"><stop offset="0" stop-color="#fbfcfc"/><stop offset="1" stop-color="#e4e6eb"/></linearGradient><linearGradient id="linear-gradient-3" x1="2466.8" y1="1242.08" x2="2466.91" y2="1241.46" gradientTransform="matrix(11.34, 0, 0, -40.76, -27829.01, 50762.77)" gradientUnits="userSpaceOnUse"><stop offset="0" stop-color="#a760ff"/><stop offset="1" stop-color="#7001f9"/></linearGradient><linearGradient id="linear-gradient-4" x1="2657.98" y1="1239.72" x2="2658.98" y2="1239.72" gradientTransform="matrix(57.57, 0, 0, -51.39, -152919.61, 63851.24)" gradientUnits="userSpaceOnUse"><stop offset="0" stop-color="#bec2ce"/><stop offset="1" stop-color="#f4f5f7"/></linearGradient><linearGradient id="linear-gradient-5" x1="2669.95" y1="1240.26" x2="2670.95" y2="1240.26" gradientTransform="matrix(34, 0, 0, -47.95, -89192.22, 59618.7)" gradientUnits="userSpaceOnUse"><stop offset="0" stop-color="#bec2ce"/><stop offset="1" stop-color="#feffff"/></linearGradient><linearGradient id="linear-gradient-6" x1="2664.12" y1="1289.61" x2="2662.93" y2="1288.58" gradientTransform="matrix(30.45, 0, 0, -52.57, -80146.35, 66618.05)" xlink:href="#linear-gradient-5"/><linearGradient id="linear-gradient-7" x1="2635.32" y1="1257.67" x2="2635.64" y2="1258.34" gradientTransform="matrix(34.56, 0, 0, -44.46, -90700.66, 55311.61)" gradientUnits="userSpaceOnUse"><stop offset="0" stop-color="#606475"/><stop offset="1" stop-color="#9da5a2"/></linearGradient><linearGradient id="linear-gradient-8" x1="2598.73" y1="1276.18" x2="2598.44" y2="1275.71" gradientTransform="matrix(21.42, 0, 0, -31.46, -55149.52, 39299.98)" xlink:href="#linear-gradient-7"/><linearGradient id="linear-gradient-9" x1="2517.53" y1="1417.77" x2="2517.93" y2="1418.38" gradientTransform="matrix(9.02, 0, 0, -15.56, -22148.4, 21015.93)" xlink:href="#linear-gradient-5"/><linearGradient id="linear-gradient-10" x1="2585.17" y1="1248.71" x2="2584.69" y2="1249.4" gradientTransform="matrix(22.43, 0, 0, -23.14, -57823.32, 29024.2)" gradientUnits="userSpaceOnUse"><stop offset="0" stop-color="#a760ff"/><stop offset="1" stop-color="#790dff"/></linearGradient><linearGradient id="linear-gradient-11" x1="2678.72" y1="1236.22" x2="2679.64" y2="1235.68" gradientTransform="matrix(103.29, 0, 0, -103.7, -276590.1, 128243.33)" gradientUnits="userSpaceOnUse"><stop offset="0" stop-color="#7811f8"/><stop offset="1" stop-color="#3c097c"/></linearGradient><linearGradient id="linear-gradient-12" x1="2678.4" y1="1236.16" x2="2679.26" y2="1235.67" gradientTransform="matrix(101.39, 0, 0, -102.18, -271443.97, 126378.59)" gradientUnits="userSpaceOnUse"><stop offset="0" stop-color="#a760ff"/><stop offset="1" stop-color="#543080"/></linearGradient><linearGradient id="linear-gradient-13" x1="2562.3" y1="1247.93" x2="2563.3" y2="1247.93" gradientTransform="matrix(18.96, 0, 0, -24.71, -48463.93, 30904.27)" gradientUnits="userSpaceOnUse"><stop offset="0" stop-color="#4c6fbf"/><stop offset="1" stop-color="#8ca3d8"/></linearGradient><linearGradient id="linear-gradient-14" x1="2678.17" y1="1235.92" x2="2678.99" y2="1236.09" gradientTransform="matrix(99.61, 0, 0, -101.97, -266624.63, 126116.17)" gradientUnits="userSpaceOnUse"><stop offset="0" stop-color="#4c6fbf"/><stop offset="1" stop-color="#fff"/></linearGradient></defs><g id="Layer_2" data-name="Layer 2"><g id="Layer_1-2" data-name="Layer 1"><g id="Group_67" data-name="Group 67"><path id="Path_106" data-name="Path 106" d="M260.64,104.64c-4.71-28.5-36.37-47.18-69.75-41.12a70.17,70.17,0,0,0-23.17,8.55c-13.2,7.79-14.54,20.5-25.4,30.65C121.5,122.17,112.18,110.31,93,104,64.7,94.66,14.19,83.64,5.69,127.89c-8.55,44.6,56.39,44.33,74,51.3,13.7,5.42,23.28,16.13,26.39,28.95l.15.59c6.62,25.76,22.63,59.28,53.57,55.21,49.85-6.57,51.86-39,46.7-68,0-.08-3.21-19.54-3.23-19.62-2-11,25.27-15.13,35.39-22.67C254.72,141.67,263.72,123.31,260.64,104.64Z" fill="#ffcc8f" opacity="0.5" style="isolation:isolate"/><path id="Path_107" data-name="Path 107" d="M186.51,40.46c-36,4.47-159.67,15.28-26.8,115.5,17.36,13.1,32.28,50.92,63.89,43S295.67,153.8,270,141.4C214,114.31,339.73,21.42,186.51,40.46Z" fill="#ffcc8f" opacity="0.3" style="isolation:isolate"/><path id="Path_108" data-name="Path 108" d="M214.53,113.28q-2.19-1.41-4.25-3c-11.15-8.68-16.85-22.33-26.44-32.52-9.37-10-20.15-19.64-31.66-27C128,35.16,99.67,29.57,73.5,36.9,45.55,44.73,21.5,65.6,9.33,92a105.14,105.14,0,0,0-1,84.32c10.42,24.26,31.43,47.22,56.77,55.78,19.28,6.51,39.68,4.32,58.83.53,26.51-5.25,51.57-10.72,79.45-7.52,17.21,2,33.1,5.65,49.61.91,15.35-4.4,28.25-16.93,35.71-30.74a63.28,63.28,0,0,0,5.69-45.43c-3-11.8-10.93-23.9-22.68-27.19-7.78-2.18-15.68-.13-23.55.2A58,58,0,0,1,214.53,113.28Z" fill="#ffcc8f"/><g id="Group_66" data-name="Group 66"><g id="Group_47" data-name="Group 47" opacity="0.15"><ellipse id="Ellipse_22" data-name="Ellipse 22" cx="128.43" cy="171.22" rx="24.58" ry="11.44" fill="#2b2e3d" fill-opacity="0"/><ellipse id="Ellipse_23" data-name="Ellipse 23" cx="128.44" cy="171.22" rx="24.19" ry="11.25" fill="#2b2e3d" opacity="0.04" style="isolation:isolate"/><ellipse id="Ellipse_24" data-name="Ellipse 24" cx="128.43" cy="171.22" rx="23.8" ry="11.07" fill="#2b2e3d" opacity="0.07" style="isolation:isolate"/><ellipse id="Ellipse_25" data-name="Ellipse 25" cx="128.44" cy="171.22" rx="23.41" ry="10.89" fill="#2b2e3d" opacity="0.11" style="isolation:isolate"/><ellipse id="Ellipse_26" data-name="Ellipse 26" cx="128.43" cy="171.22" rx="23.01" ry="10.7" fill="#2b2e3d" opacity="0.15" style="isolation:isolate"/><ellipse id="Ellipse_27" data-name="Ellipse 27" cx="128.44" cy="171.22" rx="22.62" ry="10.52" fill="#2b2e3d" opacity="0.19" style="isolation:isolate"/><ellipse id="Ellipse_28" data-name="Ellipse 28" cx="128.43" cy="171.22" rx="22.22" ry="10.34" fill="#2b2e3d" opacity="0.22" style="isolation:isolate"/><ellipse id="Ellipse_29" data-name="Ellipse 29" cx="128.44" cy="171.22" rx="21.83" ry="10.15" fill="#2b2e3d" opacity="0.26" style="isolation:isolate"/><ellipse id="Ellipse_30" data-name="Ellipse 30" cx="128.43" cy="171.22" rx="21.44" ry="9.97" fill="#2b2e3d" opacity="0.3" style="isolation:isolate"/><ellipse id="Ellipse_31" data-name="Ellipse 31" cx="128.44" cy="171.22" rx="21.04" ry="9.79" fill="#2b2e3d" opacity="0.33" style="isolation:isolate"/><ellipse id="Ellipse_32" data-name="Ellipse 32" cx="128.44" cy="171.22" rx="20.65" ry="9.61" fill="#2b2e3d" opacity="0.37" style="isolation:isolate"/><ellipse id="Ellipse_33" data-name="Ellipse 33" cx="128.43" cy="171.22" rx="20.26" ry="9.42" fill="#2b2e3d" opacity="0.41" style="isolation:isolate"/><ellipse id="Ellipse_34" data-name="Ellipse 34" cx="128.44" cy="171.22" rx="19.86" ry="9.24" fill="#2b2e3d" opacity="0.44" style="isolation:isolate"/><ellipse id="Ellipse_35" data-name="Ellipse 35" cx="128.43" cy="171.22" rx="19.47" ry="9.06" fill="#2b2e3d" opacity="0.48" style="isolation:isolate"/><ellipse id="Ellipse_36" data-name="Ellipse 36" cx="128.44" cy="171.22" rx="19.08" ry="8.87" fill="#2b2e3d" opacity="0.52" style="isolation:isolate"/><ellipse id="Ellipse_37" data-name="Ellipse 37" cx="128.43" cy="171.22" rx="18.68" ry="8.69" fill="#2b2e3d" opacity="0.56" style="isolation:isolate"/><ellipse id="Ellipse_38" data-name="Ellipse 38" cx="128.44" cy="171.22" rx="18.29" ry="8.51" fill="#2b2e3d" opacity="0.59" style="isolation:isolate"/><ellipse id="Ellipse_39" data-name="Ellipse 39" cx="128.43" cy="171.22" rx="17.9" ry="8.32" fill="#2b2e3d" opacity="0.63" style="isolation:isolate"/><ellipse id="Ellipse_40" data-name="Ellipse 40" cx="128.44" cy="171.22" rx="17.5" ry="8.14" fill="#2b2e3d" opacity="0.67" style="isolation:isolate"/><ellipse id="Ellipse_41" data-name="Ellipse 41" cx="128.44" cy="171.22" rx="17.11" ry="7.96" fill="#2b2e3d" opacity="0.7" style="isolation:isolate"/><ellipse id="Ellipse_42" data-name="Ellipse 42" cx="128.44" cy="171.22" rx="16.72" ry="7.78" fill="#2b2e3d" opacity="0.74" style="isolation:isolate"/><ellipse id="Ellipse_43" data-name="Ellipse 43" cx="128.44" cy="171.22" rx="16.32" ry="7.59" fill="#2b2e3d" opacity="0.78" style="isolation:isolate"/><ellipse id="Ellipse_44" data-name="Ellipse 44" cx="128.43" cy="171.22" rx="15.93" ry="7.41" fill="#2b2e3d" opacity="0.81" style="isolation:isolate"/><ellipse id="Ellipse_45" data-name="Ellipse 45" cx="128.44" cy="171.22" rx="15.53" ry="7.23" fill="#2b2e3d" opacity="0.85" style="isolation:isolate"/><ellipse id="Ellipse_46" data-name="Ellipse 46" cx="128.43" cy="171.22" rx="15.14" ry="7.04" fill="#2b2e3d" opacity="0.89" style="isolation:isolate"/><ellipse id="Ellipse_47" data-name="Ellipse 47" cx="128.44" cy="171.22" rx="14.75" ry="6.86" fill="#2b2e3d" opacity="0.93" style="isolation:isolate"/><ellipse id="Ellipse_48" data-name="Ellipse 48" cx="128.43" cy="171.22" rx="14.35" ry="6.68" fill="#2b2e3d" opacity="0.96" style="isolation:isolate"/><ellipse id="Ellipse_49" data-name="Ellipse 49" cx="128.44" cy="171.22" rx="13.96" ry="6.49" fill="#2b2e3d"/></g><g id="Group_49" data-name="Group 49"><g id="Group_48" data-name="Group 48"><path id="Path_109" data-name="Path 109" d="M93,5.93l6.25,148.58a12.55,12.55,0,0,0,6.22,10.84L137,187.69l28.3,20.08c4.8,2.8,15.66-5.41,15.66-11v-146a11.77,11.77,0,0,0-5.84-10.16L106.08.46C103.05-1.32,93,2.41,93,5.93Z" fill="url(#linear-gradient)"/><path id="Path_110" data-name="Path 110" d="M137,67.16V187.69l28.3,20.08c4.8,2.8,15.66-5.42,15.66-11v-146a11.73,11.73,0,0,0-1.84-6.31Z" fill="url(#linear-gradient-2)"/><path id="Path_111" data-name="Path 111" d="M163.25,206.78,98.63,169.11a12.53,12.53,0,0,1-6.22-10.83V8.15a4.56,4.56,0,0,1,6.85-3.93l69,40.21a11.76,11.76,0,0,1,5.84,10.16v146a7.2,7.2,0,0,1-10.83,6.23Z" fill="#ec8810"/><path id="Path_112" data-name="Path 112" d="M166.87,203.73a3.17,3.17,0,0,0,3.17-3.18v-146a7.73,7.73,0,0,0-3.83-6.67l-69-40.21A.44.44,0,0,0,97,7.63a.53.53,0,0,0-.53.52V158.28a8.53,8.53,0,0,0,4.23,7.34l64.61,37.67a3.16,3.16,0,0,0,1.58.44Z" fill="#fff"/></g></g><g id="Group_50" data-name="Group 50" opacity="0.15"><ellipse id="Ellipse_50" data-name="Ellipse 50" cx="142.08" cy="95.29" rx="45.61" ry="21.22" fill="#2b2e3d" fill-opacity="0"/><ellipse id="Ellipse_51" data-name="Ellipse 51" cx="142.08" cy="95.29" rx="44.88" ry="20.88" fill="#2b2e3d" opacity="0.04" style="isolation:isolate"/><ellipse id="Ellipse_52" data-name="Ellipse 52" cx="142.08" cy="95.29" rx="44.15" ry="20.54" fill="#2b2e3d" opacity="0.07" style="isolation:isolate"/><ellipse id="Ellipse_53" data-name="Ellipse 53" cx="142.08" cy="95.29" rx="43.42" ry="20.2" fill="#2b2e3d" opacity="0.11" style="isolation:isolate"/><ellipse id="Ellipse_54" data-name="Ellipse 54" cx="142.08" cy="95.29" rx="42.69" ry="19.86" fill="#2b2e3d" opacity="0.15" style="isolation:isolate"/><ellipse id="Ellipse_55" data-name="Ellipse 55" cx="142.08" cy="95.29" rx="41.96" ry="19.52" fill="#2b2e3d" opacity="0.19" style="isolation:isolate"/><ellipse id="Ellipse_56" data-name="Ellipse 56" cx="142.08" cy="95.29" rx="41.23" ry="19.18" fill="#2b2e3d" opacity="0.22" style="isolation:isolate"/><ellipse id="Ellipse_57" data-name="Ellipse 57" cx="142.08" cy="95.29" rx="40.5" ry="18.84" fill="#2b2e3d" opacity="0.26" style="isolation:isolate"/><ellipse id="Ellipse_58" data-name="Ellipse 58" cx="142.08" cy="95.29" rx="39.77" ry="18.5" fill="#2b2e3d" opacity="0.3" style="isolation:isolate"/><ellipse id="Ellipse_59" data-name="Ellipse 59" cx="142.08" cy="95.29" rx="39.04" ry="18.16" fill="#2b2e3d" opacity="0.33" style="isolation:isolate"/><ellipse id="Ellipse_60" data-name="Ellipse 60" cx="142.08" cy="95.29" rx="38.31" ry="17.82" fill="#2b2e3d" opacity="0.37" style="isolation:isolate"/><ellipse id="Ellipse_61" data-name="Ellipse 61" cx="142.08" cy="95.29" rx="37.58" ry="17.48" fill="#2b2e3d" opacity="0.41" style="isolation:isolate"/><ellipse id="Ellipse_62" data-name="Ellipse 62" cx="142.08" cy="95.29" rx="36.85" ry="17.14" fill="#2b2e3d" opacity="0.44" style="isolation:isolate"/><ellipse id="Ellipse_63" data-name="Ellipse 63" cx="142.08" cy="95.29" rx="36.12" ry="16.8" fill="#2b2e3d" opacity="0.48" style="isolation:isolate"/><ellipse id="Ellipse_64" data-name="Ellipse 64" cx="142.08" cy="95.29" rx="35.39" ry="16.46" fill="#2b2e3d" opacity="0.52" style="isolation:isolate"/><ellipse id="Ellipse_65" data-name="Ellipse 65" cx="142.08" cy="95.29" rx="34.66" ry="16.12" fill="#2b2e3d" opacity="0.56" style="isolation:isolate"/><ellipse id="Ellipse_66" data-name="Ellipse 66" cx="142.08" cy="95.29" rx="33.93" ry="15.78" fill="#2b2e3d" opacity="0.59" style="isolation:isolate"/><ellipse id="Ellipse_67" data-name="Ellipse 67" cx="142.08" cy="95.29" rx="33.2" ry="15.44" fill="#2b2e3d" opacity="0.63" style="isolation:isolate"/><ellipse id="Ellipse_68" data-name="Ellipse 68" cx="142.08" cy="95.29" rx="32.47" ry="15.1" fill="#2b2e3d" opacity="0.67" style="isolation:isolate"/><ellipse id="Ellipse_69" data-name="Ellipse 69" cx="142.08" cy="95.29" rx="31.74" ry="14.76" fill="#2b2e3d" opacity="0.7" style="isolation:isolate"/><ellipse id="Ellipse_70" data-name="Ellipse 70" cx="142.08" cy="95.29" rx="31.01" ry="14.43" fill="#2b2e3d" opacity="0.74" style="isolation:isolate"/><ellipse id="Ellipse_71" data-name="Ellipse 71" cx="142.08" cy="95.29" rx="30.28" ry="14.09" fill="#2b2e3d" opacity="0.78" style="isolation:isolate"/><ellipse id="Ellipse_72" data-name="Ellipse 72" cx="142.08" cy="95.29" rx="29.55" ry="13.75" fill="#2b2e3d" opacity="0.81" style="isolation:isolate"/><ellipse id="Ellipse_73" data-name="Ellipse 73" cx="142.08" cy="95.29" rx="28.82" ry="13.41" fill="#2b2e3d" opacity="0.85" style="isolation:isolate"/><ellipse id="Ellipse_74" data-name="Ellipse 74" cx="142.08" cy="95.29" rx="28.09" ry="13.07" fill="#2b2e3d" opacity="0.89" style="isolation:isolate"/><ellipse id="Ellipse_75" data-name="Ellipse 75" cx="142.08" cy="95.29" rx="27.36" ry="12.73" fill="#2b2e3d" opacity="0.93" style="isolation:isolate"/><ellipse id="Ellipse_76" data-name="Ellipse 76" cx="142.08" cy="95.29" rx="26.63" ry="12.39" fill="#2b2e3d" opacity="0.96" style="isolation:isolate"/><ellipse id="Ellipse_77" data-name="Ellipse 77" cx="142.08" cy="95.29" rx="25.9" ry="12.05" fill="#2b2e3d"/></g><g id="Group_60" data-name="Group 60"><g id="Group_58" data-name="Group 58"><g id="Group_51" data-name="Group 51"><path id="Path_113" data-name="Path 113" d="M137,128.5l-6.86,5.63s-.85,20.39-1.13,23.11c-.64,6.38-3.77,6.74-3.24,11.85,0,.16.16.2.43.15l5.18,1.8,5-5.24,0-2.15.67-.43Z" fill="#3e008b"/><path id="Path_114" data-name="Path 114" d="M135.79,136.09s-.9,20.39-1.12,23.1c-.64,7.71-4,6.62-3.24,11.86.19,1.36,11.23-5.87,11.23-5.87V130.46Z" fill="url(#linear-gradient-3)"/></g><path id="Path_115" data-name="Path 115" d="M149.76,123.36a14.12,14.12,0,0,0-6.4-11.08c-1.86-1.07-3.53-1.12-4.7-.35h0L116.2,122h0l-1.07.48c-2.57,1-9.58,3-19.08-.7-12.09-4.67,8.11,30.13,8.11,30.13l13.45,10.91s2.45-11.35,8.35-17.63l3.35-2.71h0l18.54-15h0C149,126.84,149.75,125.41,149.76,123.36Z" fill="url(#linear-gradient-4)"/><g id="Group_57" data-name="Group 57"><g id="Group_55" data-name="Group 55"><path id="Path_116" data-name="Path 116" d="M87,122.35l.1-.06.12-.05a5.52,5.52,0,0,1,.69-.34l.13-.06.11,0q.41-.17.84-.3l0,0h0q.47-.12.93-.21l.11,0h.15a7.71,7.71,0,0,1,.84-.1l.14,0h0c.36,0,.72,0,1.08,0h.11c.12,0,.24,0,.35,0l.25,0q.38,0,.75.09h0l.84.15.27.07.53.13h.05c.33.09.67.2,1,.31l.2.08.82.31.11,0,.2.1c.29.12.59.26.89.4l.34.17c.39.2.78.4,1.18.63l.89.54.29.19.6.4.32.23.56.4.33.25.55.43.31.25.62.52.22.19c.28.24.55.49.82.75a1.29,1.29,0,0,1,.17.16l.54.52.08.08c.32.32.64.64,1,1l0,0c.3.32.6.65.89,1l.08.09.1.12c.47.54.92,1.1,1.37,1.67l0,0a.71.71,0,0,1,.1.14c.36.46.7.93,1,1.4l.1.14,0,.07c.32.46.63.93.94,1.41l.09.14a2.26,2.26,0,0,1,.13.2c.25.4.49.79.72,1.19l.12.18,0,.08c.26.45.52.92.77,1.38l.06.12.12.23.57,1.12c0,.08.08.15.11.23l.07.14c.23.48.45.95.65,1.43l0,0,.06.15c.18.44.36.87.53,1.31l.09.21a1.89,1.89,0,0,1,.06.18c.2.52.39,1,.56,1.55v0l0,.1c.18.53.34,1.07.49,1.6l.06.2c0,.07,0,.13.05.19s.08.32.13.48.11.43.16.64.07.33.11.49,0,.23.08.34,0,.16,0,.24c0,.25.1.49.14.73l.09.51.12.75c0,.12,0,.24,0,.36s0,.06,0,.09c.07.54.12,1.07.16,1.6,0,.11,0,.22,0,.34,0,.54,0,1.08,0,1.62,0,5.87-2.09,10-5.44,12l-2.16,1.25c3.35-2,5.43-6.08,5.44-12,0-.54,0-1.08-.05-1.62,0-.12,0-.23,0-.34,0-.53-.09-1.07-.16-1.6,0-.15,0-.3-.06-.44s-.07-.5-.11-.76l-.09-.5c0-.24-.09-.49-.14-.73s-.08-.39-.13-.59-.07-.32-.11-.48-.1-.43-.16-.64l-.12-.49c0-.13-.08-.25-.11-.38-.16-.54-.32-1.08-.49-1.61l0-.12c-.18-.52-.36-1-.56-1.56l-.15-.38c-.17-.44-.35-.88-.53-1.31l-.09-.2c-.21-.49-.43-1-.65-1.44-.06-.12-.12-.25-.19-.37-.18-.38-.37-.75-.57-1.12-.05-.12-.11-.23-.17-.35-.25-.46-.51-.93-.78-1.38l-.15-.26c-.23-.4-.48-.79-.72-1.18l-.22-.35-.94-1.41-.15-.2c-.34-.48-.69-.95-1-1.41l-.14-.19c-.45-.57-.9-1.12-1.37-1.67l-.19-.21c-.29-.33-.58-.66-.88-1l0,0c-.31-.34-.63-.66-1-1l-.62-.6-.17-.16c-.27-.26-.55-.51-.83-.75l-.22-.19-.62-.52-.3-.25-.56-.43-.33-.25-.55-.4-.33-.23-.6-.4-.28-.18q-.45-.28-.9-.54c-.4-.23-.79-.44-1.18-.64l-.34-.16c-.29-.15-.59-.28-.88-.4l-.32-.14-.82-.31-.2-.08c-.34-.11-.68-.22-1-.31l-.58-.14-.27-.07-.85-.16h0l-.75-.09h-.25c-.15,0-.31,0-.46,0-.36,0-.72,0-1.08,0l-.18,0a7.42,7.42,0,0,0-.84.1l-.26,0q-.48.09-.93.21l0,0a6.61,6.61,0,0,0-.85.3l-.23.1a7.32,7.32,0,0,0-.69.33l-.23.12Z" fill="url(#linear-gradient-5)"/><g id="Group_52" data-name="Group 52"><ellipse id="Ellipse_78" data-name="Ellipse 78" cx="98.05" cy="146.33" rx="15.23" ry="26.29" transform="translate(-60.25 69.08) rotate(-30.16)" fill="url(#linear-gradient-6)"/></g><g id="Group_53" data-name="Group 53"><path id="Path_117" data-name="Path 117" d="M80.77,136.35c0,11,7.68,24.33,17.23,29.84,8.75,5.05,16,1.75,17.17-7.28a20.51,20.51,0,0,0,.16-2.6c0-10.37-6.86-22.88-15.68-28.86-.51-.35-1-.68-1.54-1C88.57,121,80.8,125.39,80.77,136.35Z" fill="url(#linear-gradient-7)"/></g><path id="Path_118" data-name="Path 118" d="M93.91,139.75l6.86,13.68,14.4,5.48a20.52,20.52,0,0,0,.17-2.6c0-10.37-6.87-22.88-15.69-28.86Z" fill="url(#linear-gradient-8)"/><g id="Group_54" data-name="Group 54"><ellipse id="Ellipse_79" data-name="Ellipse 79" cx="98.05" cy="146.34" rx="4.51" ry="7.78" transform="translate(-60.21 68.99) rotate(-30.13)" fill="url(#linear-gradient-9)"/></g></g><g id="Group_56" data-name="Group 56"><path id="Path_119" data-name="Path 119" d="M141.72,132.67c.66-3.38-.76-7.36-2.63-10.32s-5-6.37-8.4-7L142.47,110h0c1.12-.74,2.72-.7,4.51.34A13.52,13.52,0,0,1,153.12,121c0,2-.71,3.34-1.84,4h0Z" fill="url(#linear-gradient-10)"/></g></g></g><g id="Group_59" data-name="Group 59"><path id="Path_120" data-name="Path 120" d="M75.26,144.66A21.07,21.07,0,0,0,79,160.4c5.58,8,13.09,8.59,13.09,8.59" fill="none" stroke="#a760ff" stroke-linecap="round" stroke-miterlimit="10" stroke-width="3"/><path id="Path_121" data-name="Path 121" d="M65.78,144.26s-2.36,9.93,4.85,20.33,16.92,11.1,16.92,11.1" fill="none" stroke="#a760ff" stroke-linecap="round" stroke-miterlimit="10" stroke-width="3"/><path id="Path_122" data-name="Path 122" d="M57.1,143.79s-3,12.75,6.23,26.1,21.72,14.24,21.72,14.24" fill="none" stroke="#a760ff" stroke-linecap="round" stroke-miterlimit="10" stroke-width="3"/></g></g><g id="Group_65" data-name="Group 65"><path id="Path_123" data-name="Path 123" d="M113.2,80.5l89.81,54c2.57,1.48,6.78-2,6.78-5V92a8.81,8.81,0,0,0-4.42-7.64l-91.44-52.7c-2.46-1.41-7.43.38-7.43,3.23l1.9,37.31A9.59,9.59,0,0,0,113.2,80.5Z" fill="url(#linear-gradient-11)"/><path id="Path_124" data-name="Path 124" d="M109.68,82.43l90.81,52.34a3.86,3.86,0,0,0,5.26-1.42,3.81,3.81,0,0,0,.51-1.92V93.92a8.83,8.83,0,0,0-4.41-7.64L110.41,33.59a3.69,3.69,0,0,0-5,1.36,3.61,3.61,0,0,0-.5,1.84V74.13A9.59,9.59,0,0,0,109.68,82.43Z" fill="url(#linear-gradient-12)"/><g id="Group_64" data-name="Group 64"><g id="Group_61" data-name="Group 61"><path id="Path_125" data-name="Path 125" d="M111.14,58.91c0,4.13,1.62,8.86,4.26,13.21.42.7.87,1.39,1.34,2.06A34.36,34.36,0,0,0,125.56,83c.23.16.46.3.7.45l.35.22.35.2.7.39C131,86,134.05,86.58,136.48,86a6.4,6.4,0,0,0,1.34-.45c2.64-1.18,4.26-4,4.26-8.1,0-8.54-6.92-19.62-15.47-24.74S111.14,50.37,111.14,58.91Z" fill="#fff"/><path id="Path_126" data-name="Path 126" d="M117.13,71.61c0,.1,0,.2,0,.3.36.59.73,1.17,1.13,1.74a29.11,29.11,0,0,0,7.45,7.44l.59.38.3.18.3.18.59.32c2.83,1.5,5.4,2,7.45,1.49a5.87,5.87,0,0,0,1.14-.38V83c0-4.42-3-10-7.13-13.46,1.27,0,2.12-.91,2.12-2.52,0-2.46-2-5.66-4.46-7.13s-4.47-.68-4.47,1.78a8.64,8.64,0,0,0,2.12,5.06C120.16,65.29,117.13,67.19,117.13,71.61Z" fill="url(#linear-gradient-13)"/></g><g id="Group_63" data-name="Group 63"><g id="Group_62" data-name="Group 62"><path id="Path_127" data-name="Path 127" d="M151.3,76.17l-1.75-1a2.92,2.92,0,0,1-1.4-2.2v-.28c0-.77.63-1,1.4-.59l1.75,1a3,3,0,0,1,1.4,2.21v.27C152.7,76.35,152.06,76.61,151.3,76.17Z" fill="#fff"/><path id="Path_128" data-name="Path 128" d="M198.59,103.5,156.26,79a2.9,2.9,0,0,1-1.4-2.21v-.27c0-.77.63-1,1.4-.59l42.33,24.46a2.9,2.9,0,0,1,1.4,2.2v.28C200,103.68,199.36,103.94,198.59,103.5Z" fill="#fff"/><path id="Path_129" data-name="Path 129" d="M151.3,83.42l-1.75-1a3,3,0,0,1-1.4-2.21v-.27c0-.77.63-1,1.4-.59l1.75,1a2.94,2.94,0,0,1,1.4,2.21v.27C152.7,83.6,152.06,83.87,151.3,83.42Z" fill="#fff"/><path id="Path_130" data-name="Path 130" d="M198.59,110.75,156.26,86.29a2.9,2.9,0,0,1-1.4-2.2v-.28c0-.77.63-1,1.4-.59l42.33,24.46a2.91,2.91,0,0,1,1.4,2.21v.27C200,110.93,199.36,111.2,198.59,110.75Z" fill="#fff"/><path id="Path_131" data-name="Path 131" d="M151.3,90.68l-1.75-1a3,3,0,0,1-1.4-2.21v-.27c0-.77.63-1,1.4-.59l1.75,1a2.92,2.92,0,0,1,1.4,2.2v.28C152.7,90.86,152.06,91.12,151.3,90.68Z" fill="#fff"/><path id="Path_132" data-name="Path 132" d="M198.59,118,156.26,93.55a2.91,2.91,0,0,1-1.4-2.21v-.27c0-.77.63-1,1.4-.59l42.33,24.45a2.93,2.93,0,0,1,1.4,2.21v.27C200,118.18,199.36,118.45,198.59,118Z" fill="#fff"/></g></g></g><path id="Path_133" data-name="Path 133" d="M201.85,86.28,110.41,33.59a3.67,3.67,0,0,0-3.76,0,3.68,3.68,0,0,1,3,.29l91.44,52.7a8.82,8.82,0,0,1,4.42,7.64v37.5a3.82,3.82,0,0,1-1.88,3.3,3.81,3.81,0,0,0,2.59-3.64V93.92A8.83,8.83,0,0,0,201.85,86.28Z" fill="url(#linear-gradient-14)"/></g></g></g></g></g></svg>