<svg xmlns="http://www.w3.org/2000/svg" viewBox="0 0 132.27 132.28"><g id="Layer_2" data-name="Layer 2"><g id="Layer_1-2" data-name="Layer 1"><g id="Group_45" data-name="Group 45"><g id="Group_44" data-name="Group 44"><path id="Path_100" data-name="Path 100" d="M0,0,29.62,29.8H99.24V26.45A26.45,26.45,0,0,0,72.79,0H0" fill="#ffcc8f"/><path id="Path_101" data-name="Path 101" d="M0,0,29.8,29.61V99.24H26.45A26.46,26.46,0,0,1,0,72.78H0V0" fill="#a760ff"/><path id="Path_102" data-name="Path 102" d="M132.26,132.28l-29.61-29.8H33v3.35a26.45,26.45,0,0,0,26.45,26.45h72.78" fill="#ffcc8f"/><path id="Path_103" data-name="Path 103" d="M132.27,132.28l-29.8-29.61V33.05h3.35A26.45,26.45,0,0,1,132.27,59.5h0v72.78" fill="#a760ff"/><path id="Path_104" data-name="Path 104" d="M81.8,81.77a2.44,2.44,0,0,1-.79.6,2.33,2.33,0,0,1-1,.24H52.29a2.38,2.38,0,0,1-1-.24,2.43,2.43,0,0,1-1.38-2.19V52.5a2.47,2.47,0,0,1,.71-1.72Z" fill="#a760ff"/><path id="Path_105" data-name="Path 105" d="M80,50.07H52.29a2.43,2.43,0,0,0-1.71.71l31.22,31a2.43,2.43,0,0,0,.6-1.59V52.5A2.43,2.43,0,0,0,80,50.07Z" fill="#ffcc8f"/></g></g></g></g></svg>